<svg xmlns="http://www.w3.org/2000/svg" version="1.1" xmlns:xlink="http://www.w3.org/1999/xlink" xmlns:svgjs="http://svgjs.com/svgjs" width="1440" height="800" preserveAspectRatio="none" viewBox="0 0 1440 800"><g mask="url(&quot;#SvgjsMask1042&quot;)" fill="none"><rect width="1440" height="800" x="0" y="0" fill="rgba(40, 172, 255, 1)"></rect><path d="M0,343.643C78.463,344.046,157.288,387.22,230.167,358.147C307.529,327.286,363.043,257.23,401.64,183.423C441.569,107.068,460.206,20.813,451.397,-64.901C442.365,-152.779,405.496,-234.657,351.488,-304.566C295.28,-377.324,228.854,-455.53,138.125,-470.411C48.975,-485.033,-25.535,-407.574,-111.737,-380.542C-195.811,-354.177,-299.051,-375.339,-361.917,-313.603C-425.407,-251.254,-435.59,-151.598,-435.486,-62.613C-435.391,18.839,-397.454,92.01,-361.358,165.027C-326.321,235.902,-299.527,320.755,-228.651,355.788C-158.815,390.307,-77.901,343.242,0,343.643" fill="#0096f5"></path><path d="M1440 1282.518C1552.032 1271.545 1662.691 1348.277 1769.4859999999999 1312.69 1887.549 1273.348 1993.108 1189.205 2050.848 1078.965 2109.835 966.345 2111.173 831.775 2086.718 707.016 2063.024 586.136 2005.9 471.632 1915.417 388.049 1829.925 309.077 1714.795 272.53599999999994 1599.462 256.92100000000005 1495.379 242.82899999999995 1394.856 273.46000000000004 1294.35 303.962 1194.73 334.195 1100.807 371.615 1017.1890000000001 433.633 915.213 509.267 767.851 575.35 757.798 701.914 747.611 830.158 917.912 897.001 971.078 1014.149 1024.443 1131.7359999999999 954.175 1317.4270000000001 1066.249 1381.568 1180.422 1446.9099999999999 1309.077 1295.341 1440 1282.518" fill="#5abfff"></path></g><defs><mask id="SvgjsMask1042"><rect width="1440" height="800" fill="#ffffff"></rect></mask></defs></svg>