<svg xmlns="http://www.w3.org/2000/svg" version="1.1" xmlns:xlink="http://www.w3.org/1999/xlink" xmlns:svgjs="http://svgjs.com/svgjs" width="1920" height="1080" preserveAspectRatio="none" viewBox="0 0 1920 1080"><g mask="url(&quot;#SvgjsMask1172&quot;)" fill="none"><rect width="1920" height="1080" x="0" y="0" fill="rgba(19, 25, 54, 1)"></rect><path d="M0,722.07C152.787,723.511,321.392,782.666,448.441,697.787C575.324,613.019,595.644,438.57,641.972,293.179C683.181,163.854,705.907,34.626,702.995,-101.075C699.734,-253.023,702.601,-410.639,624.075,-540.764C538.584,-682.43,414.696,-835.104,250.06,-851.627C84.214,-868.272,-34.454,-698.196,-182.553,-621.72C-297.306,-562.463,-422.156,-534.073,-522.455,-452.71C-638.8,-358.33,-773.895,-262.209,-806.096,-115.899C-838.76,32.516,-754.065,177.307,-691.605,315.845C-628.864,455.006,-574.661,612.065,-443.036,689.377C-312.713,765.924,-151.134,720.644,0,722.07" fill="#0e1329"></path><path d="M1920 1782.575C2054.83 1781.8609999999999 2186.317 1743.771 2300.6530000000002 1672.308 2415.951 1600.243 2522.0460000000003 1504.034 2569.5 1376.617 2615.5969999999998 1252.842 2573.055 1119.539 2555.2619999999997 988.663 2537.321 856.6990000000001 2533.364 722.054 2464.975 607.7760000000001 2388.4700000000003 479.93600000000004 2293.33 335.06600000000003 2147.089 306.606 2000.978 278.172 1873.036 400.08000000000004 1739.911 466.673 1630.355 521.476 1528.341 579.7909999999999 1437.2440000000001 661.69 1334.495 754.065 1215.8490000000002 840.64 1176.594 973.114 1135.092 1113.172 1151.749 1270.42 1218.336 1400.439 1283.6770000000001 1528.026 1410.859 1607.797 1536.745 1676.356 1655.5729999999999 1741.0720000000001 1784.694 1783.292 1920 1782.575" fill="#181f44"></path></g><defs><mask id="SvgjsMask1172"><rect width="1920" height="1080" fill="#ffffff"></rect></mask></defs></svg>