<svg xmlns="http://www.w3.org/2000/svg" version="1.1" xmlns:xlink="http://www.w3.org/1999/xlink" xmlns:svgjs="http://svgjs.com/svgjs" width="1440" height="560" preserveAspectRatio="none" viewBox="0 0 1440 560"><g mask="url(&quot;#SvgjsMask1046&quot;)" fill="none"><rect width="1440" height="560" x="0" y="0" fill="rgba(183, 218, 255, 1)"></rect><path d="M-88.47 340.01L-88.47 340.01" stroke="rgba(206, 233, 255, 1)" stroke-width="1.5"></path><path d="M-88.47 340.01L90.19 388.23" stroke="rgba(206, 233, 255, 1)" stroke-width="1.5"></path><path d="M-88.47 340.01L-107.74 553.8" stroke="rgba(206, 233, 255, 1)" stroke-width="1.5"></path><path d="M-107.74 553.8L-107.74 553.8" stroke="rgba(206, 233, 255, 1)" stroke-width="1.5"></path><path d="M-107.74 553.8L-65.17 690.78" stroke="rgba(206, 233, 255, 1)" stroke-width="1.5"></path><path d="M-107.74 553.8L90.19 388.23" stroke="rgba(206, 233, 255, 1)" stroke-width="1.5"></path><path d="M-107.74 553.8L207.76 507.98" stroke="rgba(206, 233, 255, 1)" stroke-width="1.5"></path><path d="M-107.74 553.8L259.06 647.39" stroke="rgba(206, 233, 255, 1)" stroke-width="1.5"></path><path d="M-107.74 553.8L212.87 351.58" stroke="rgba(206, 233, 255, 1)" stroke-width="1.5"></path><path d="M-65.17 690.78L-65.17 690.78" stroke="rgba(206, 233, 255, 1)" stroke-width="1.5"></path><path d="M90.19 388.23L90.19 388.23" stroke="rgba(206, 233, 255, 1)" stroke-width="1.5"></path><path d="M90.19 388.23L212.87 351.58" stroke="rgba(206, 233, 255, 1)" stroke-width="1.5"></path><path d="M90.19 388.23L207.76 507.98" stroke="rgba(206, 233, 255, 1)" stroke-width="1.5"></path><path d="M212.87 351.58L212.87 351.58" stroke="rgba(206, 233, 255, 1)" stroke-width="1.5"></path><path d="M212.87 351.58L207.76 507.98" stroke="rgba(206, 233, 255, 1)" stroke-width="1.5"></path><path d="M212.87 351.58L348.93 534.81" stroke="rgba(206, 233, 255, 1)" stroke-width="1.5"></path><path d="M212.87 351.58L504.27 388.4" stroke="rgba(206, 233, 255, 1)" stroke-width="1.5"></path><path d="M207.76 507.98L207.76 507.98" stroke="rgba(206, 233, 255, 1)" stroke-width="1.5"></path><path d="M207.76 507.98L348.93 534.81" stroke="rgba(206, 233, 255, 1)" stroke-width="1.5"></path><path d="M207.76 507.98L259.06 647.39" stroke="rgba(206, 233, 255, 1)" stroke-width="1.5"></path><path d="M207.76 507.98L353.55 678.49" stroke="rgba(206, 233, 255, 1)" stroke-width="1.5"></path><path d="M259.06 647.39L259.06 647.39" stroke="rgba(206, 233, 255, 1)" stroke-width="1.5"></path><path d="M259.06 647.39L353.55 678.49" stroke="rgba(206, 233, 255, 1)" stroke-width="1.5"></path><path d="M259.06 647.39L348.93 534.81" stroke="rgba(206, 233, 255, 1)" stroke-width="1.5"></path><path d="M259.06 647.39L488.47 644.89" stroke="rgba(206, 233, 255, 1)" stroke-width="1.5"></path><path d="M259.06 647.39L212.87 351.58" stroke="rgba(206, 233, 255, 1)" stroke-width="1.5"></path><path d="M259.06 647.39L90.19 388.23" stroke="rgba(206, 233, 255, 1)" stroke-width="1.5"></path><path d="M348.93 534.81L348.93 534.81" stroke="rgba(206, 233, 255, 1)" stroke-width="1.5"></path><path d="M348.93 534.81L353.55 678.49" stroke="rgba(206, 233, 255, 1)" stroke-width="1.5"></path><path d="M348.93 534.81L488.47 644.89" stroke="rgba(206, 233, 255, 1)" stroke-width="1.5"></path><path d="M348.93 534.81L504.27 388.4" stroke="rgba(206, 233, 255, 1)" stroke-width="1.5"></path><path d="M353.55 678.49L353.55 678.49" stroke="rgba(206, 233, 255, 1)" stroke-width="1.5"></path><path d="M353.55 678.49L488.47 644.89" stroke="rgba(206, 233, 255, 1)" stroke-width="1.5"></path><path d="M504.27 388.4L504.27 388.4" stroke="rgba(206, 233, 255, 1)" stroke-width="1.5"></path><path d="M504.27 388.4L664.06 383.79" stroke="rgba(206, 233, 255, 1)" stroke-width="1.5"></path><path d="M504.27 388.4L661.67 517.63" stroke="rgba(206, 233, 255, 1)" stroke-width="1.5"></path><path d="M488.47 644.89L488.47 644.89" stroke="rgba(206, 233, 255, 1)" stroke-width="1.5"></path><path d="M488.47 644.89L661.67 517.63" stroke="rgba(206, 233, 255, 1)" stroke-width="1.5"></path><path d="M691.51 214.22L691.51 214.22" stroke="rgba(206, 233, 255, 1)" stroke-width="1.5"></path><path d="M691.51 214.22L664.06 383.79" stroke="rgba(206, 233, 255, 1)" stroke-width="1.5"></path><path d="M691.51 214.22L820.84 348.73" stroke="rgba(206, 233, 255, 1)" stroke-width="1.5"></path><path d="M691.51 214.22L504.27 388.4" stroke="rgba(206, 233, 255, 1)" stroke-width="1.5"></path><path d="M691.51 214.22L981.93 231.4" stroke="rgba(206, 233, 255, 1)" stroke-width="1.5"></path><path d="M691.51 214.22L661.67 517.63" stroke="rgba(206, 233, 255, 1)" stroke-width="1.5"></path><path d="M691.51 214.22L816.93 508.11" stroke="rgba(206, 233, 255, 1)" stroke-width="1.5"></path><path d="M664.06 383.79L664.06 383.79" stroke="rgba(206, 233, 255, 1)" stroke-width="1.5"></path><path d="M664.06 383.79L661.67 517.63" stroke="rgba(206, 233, 255, 1)" stroke-width="1.5"></path><path d="M664.06 383.79L820.84 348.73" stroke="rgba(206, 233, 255, 1)" stroke-width="1.5"></path><path d="M661.67 517.63L661.67 517.63" stroke="rgba(206, 233, 255, 1)" stroke-width="1.5"></path><path d="M661.67 517.63L816.93 508.11" stroke="rgba(206, 233, 255, 1)" stroke-width="1.5"></path><path d="M820.84 348.73L820.84 348.73" stroke="rgba(206, 233, 255, 1)" stroke-width="1.5"></path><path d="M820.84 348.73L955.65 395.4" stroke="rgba(206, 233, 255, 1)" stroke-width="1.5"></path><path d="M820.84 348.73L816.93 508.11" stroke="rgba(206, 233, 255, 1)" stroke-width="1.5"></path><path d="M820.84 348.73L981.93 231.4" stroke="rgba(206, 233, 255, 1)" stroke-width="1.5"></path><path d="M820.84 348.73L661.67 517.63" stroke="rgba(206, 233, 255, 1)" stroke-width="1.5"></path><path d="M816.93 508.11L816.93 508.11" stroke="rgba(206, 233, 255, 1)" stroke-width="1.5"></path><path d="M816.93 508.11L955.65 395.4" stroke="rgba(206, 233, 255, 1)" stroke-width="1.5"></path><path d="M816.93 508.11L994.05 560.79" stroke="rgba(206, 233, 255, 1)" stroke-width="1.5"></path><path d="M816.93 508.11L862.46 687.78" stroke="rgba(206, 233, 255, 1)" stroke-width="1.5"></path><path d="M816.93 508.11L664.06 383.79" stroke="rgba(206, 233, 255, 1)" stroke-width="1.5"></path><path d="M862.46 687.78L862.46 687.78" stroke="rgba(206, 233, 255, 1)" stroke-width="1.5"></path><path d="M862.46 687.78L1006.7 647.07" stroke="rgba(206, 233, 255, 1)" stroke-width="1.5"></path><path d="M862.46 687.78L994.05 560.79" stroke="rgba(206, 233, 255, 1)" stroke-width="1.5"></path><path d="M862.46 687.78L661.67 517.63" stroke="rgba(206, 233, 255, 1)" stroke-width="1.5"></path><path d="M862.46 687.78L1144.66 665.04" stroke="rgba(206, 233, 255, 1)" stroke-width="1.5"></path><path d="M862.46 687.78L1132.3 551.28" stroke="rgba(206, 233, 255, 1)" stroke-width="1.5"></path><path d="M960.63 -98.27L960.63 -98.27" stroke="rgba(206, 233, 255, 1)" stroke-width="1.5"></path><path d="M960.63 -98.27L1091.34 -46.82" stroke="rgba(206, 233, 255, 1)" stroke-width="1.5"></path><path d="M960.63 -98.27L980.36 70.91" stroke="rgba(206, 233, 255, 1)" stroke-width="1.5"></path><path d="M980.36 70.91L980.36 70.91" stroke="rgba(206, 233, 255, 1)" stroke-width="1.5"></path><path d="M980.36 70.91L1110.31 40.07" stroke="rgba(206, 233, 255, 1)" stroke-width="1.5"></path><path d="M980.36 70.91L981.93 231.4" stroke="rgba(206, 233, 255, 1)" stroke-width="1.5"></path><path d="M981.93 231.4L981.93 231.4" stroke="rgba(206, 233, 255, 1)" stroke-width="1.5"></path><path d="M981.93 231.4L1133.56 257.74" stroke="rgba(206, 233, 255, 1)" stroke-width="1.5"></path><path d="M981.93 231.4L955.65 395.4" stroke="rgba(206, 233, 255, 1)" stroke-width="1.5"></path><path d="M955.65 395.4L955.65 395.4" stroke="rgba(206, 233, 255, 1)" stroke-width="1.5"></path><path d="M994.05 560.79L994.05 560.79" stroke="rgba(206, 233, 255, 1)" stroke-width="1.5"></path><path d="M994.05 560.79L1006.7 647.07" stroke="rgba(206, 233, 255, 1)" stroke-width="1.5"></path><path d="M994.05 560.79L1132.3 551.28" stroke="rgba(206, 233, 255, 1)" stroke-width="1.5"></path><path d="M994.05 560.79L955.65 395.4" stroke="rgba(206, 233, 255, 1)" stroke-width="1.5"></path><path d="M1006.7 647.07L1006.7 647.07" stroke="rgba(206, 233, 255, 1)" stroke-width="1.5"></path><path d="M1006.7 647.07L1144.66 665.04" stroke="rgba(206, 233, 255, 1)" stroke-width="1.5"></path><path d="M1006.7 647.07L1132.3 551.28" stroke="rgba(206, 233, 255, 1)" stroke-width="1.5"></path><path d="M1091.34 -46.82L1091.34 -46.82" stroke="rgba(206, 233, 255, 1)" stroke-width="1.5"></path><path d="M1091.34 -46.82L1110.31 40.07" stroke="rgba(206, 233, 255, 1)" stroke-width="1.5"></path><path d="M1110.31 40.07L1110.31 40.07" stroke="rgba(206, 233, 255, 1)" stroke-width="1.5"></path><path d="M1110.31 40.07L1246.51 -46.61" stroke="rgba(206, 233, 255, 1)" stroke-width="1.5"></path><path d="M1133.56 257.74L1133.56 257.74" stroke="rgba(206, 233, 255, 1)" stroke-width="1.5"></path><path d="M1133.56 257.74L1238.91 213.6" stroke="rgba(206, 233, 255, 1)" stroke-width="1.5"></path><path d="M1133.56 257.74L1155.62 405.17" stroke="rgba(206, 233, 255, 1)" stroke-width="1.5"></path><path d="M1155.62 405.17L1155.62 405.17" stroke="rgba(206, 233, 255, 1)" stroke-width="1.5"></path><path d="M1155.62 405.17L1132.3 551.28" stroke="rgba(206, 233, 255, 1)" stroke-width="1.5"></path><path d="M1155.62 405.17L1298.47 365.04" stroke="rgba(206, 233, 255, 1)" stroke-width="1.5"></path><path d="M1155.62 405.17L1245.4 546.79" stroke="rgba(206, 233, 255, 1)" stroke-width="1.5"></path><path d="M1155.62 405.17L955.65 395.4" stroke="rgba(206, 233, 255, 1)" stroke-width="1.5"></path><path d="M1132.3 551.28L1132.3 551.28" stroke="rgba(206, 233, 255, 1)" stroke-width="1.5"></path><path d="M1132.3 551.28L1245.4 546.79" stroke="rgba(206, 233, 255, 1)" stroke-width="1.5"></path><path d="M1132.3 551.28L1144.66 665.04" stroke="rgba(206, 233, 255, 1)" stroke-width="1.5"></path><path d="M1144.66 665.04L1144.66 665.04" stroke="rgba(206, 233, 255, 1)" stroke-width="1.5"></path><path d="M1246.51 -46.61L1246.51 -46.61" stroke="rgba(206, 233, 255, 1)" stroke-width="1.5"></path><path d="M1246.51 -46.61L1091.34 -46.82" stroke="rgba(206, 233, 255, 1)" stroke-width="1.5"></path><path d="M1246.51 -46.61L1415.61 -73.25" stroke="rgba(206, 233, 255, 1)" stroke-width="1.5"></path><path d="M1238.91 213.6L1238.91 213.6" stroke="rgba(206, 233, 255, 1)" stroke-width="1.5"></path><path d="M1238.91 213.6L1298.47 365.04" stroke="rgba(206, 233, 255, 1)" stroke-width="1.5"></path><path d="M1238.91 213.6L1419.95 230.28" stroke="rgba(206, 233, 255, 1)" stroke-width="1.5"></path><path d="M1238.91 213.6L1155.62 405.17" stroke="rgba(206, 233, 255, 1)" stroke-width="1.5"></path><path d="M1238.91 213.6L1110.31 40.07" stroke="rgba(206, 233, 255, 1)" stroke-width="1.5"></path><path d="M1238.91 213.6L981.93 231.4" stroke="rgba(206, 233, 255, 1)" stroke-width="1.5"></path><path d="M1298.47 365.04L1298.47 365.04" stroke="rgba(206, 233, 255, 1)" stroke-width="1.5"></path><path d="M1298.47 365.04L1419.95 230.28" stroke="rgba(206, 233, 255, 1)" stroke-width="1.5"></path><path d="M1298.47 365.04L1245.4 546.79" stroke="rgba(206, 233, 255, 1)" stroke-width="1.5"></path><path d="M1298.47 365.04L1133.56 257.74" stroke="rgba(206, 233, 255, 1)" stroke-width="1.5"></path><path d="M1298.47 365.04L1456.43 498.46" stroke="rgba(206, 233, 255, 1)" stroke-width="1.5"></path><path d="M1245.4 546.79L1245.4 546.79" stroke="rgba(206, 233, 255, 1)" stroke-width="1.5"></path><path d="M1245.4 546.79L1144.66 665.04" stroke="rgba(206, 233, 255, 1)" stroke-width="1.5"></path><path d="M1415.61 -73.25L1415.61 -73.25" stroke="rgba(206, 233, 255, 1)" stroke-width="1.5"></path><path d="M1415.61 -73.25L1436.06 39.62" stroke="rgba(206, 233, 255, 1)" stroke-width="1.5"></path><path d="M1436.06 39.62L1436.06 39.62" stroke="rgba(206, 233, 255, 1)" stroke-width="1.5"></path><path d="M1436.06 39.62L1545.94 103.36" stroke="rgba(206, 233, 255, 1)" stroke-width="1.5"></path><path d="M1436.06 39.62L1419.95 230.28" stroke="rgba(206, 233, 255, 1)" stroke-width="1.5"></path><path d="M1436.06 39.62L1246.51 -46.61" stroke="rgba(206, 233, 255, 1)" stroke-width="1.5"></path><path d="M1419.95 230.28L1419.95 230.28" stroke="rgba(206, 233, 255, 1)" stroke-width="1.5"></path><path d="M1419.95 230.28L1593.71 191" stroke="rgba(206, 233, 255, 1)" stroke-width="1.5"></path><path d="M1419.95 230.28L1545.94 103.36" stroke="rgba(206, 233, 255, 1)" stroke-width="1.5"></path><path d="M1419.95 230.28L1573.64 393.94" stroke="rgba(206, 233, 255, 1)" stroke-width="1.5"></path><path d="M1456.43 498.46L1456.43 498.46" stroke="rgba(206, 233, 255, 1)" stroke-width="1.5"></path><path d="M1456.43 498.46L1600.57 551.99" stroke="rgba(206, 233, 255, 1)" stroke-width="1.5"></path><path d="M1456.43 498.46L1573.64 393.94" stroke="rgba(206, 233, 255, 1)" stroke-width="1.5"></path><path d="M1436.94 688.72L1436.94 688.72" stroke="rgba(206, 233, 255, 1)" stroke-width="1.5"></path><path d="M1436.94 688.72L1612 697.53" stroke="rgba(206, 233, 255, 1)" stroke-width="1.5"></path><path d="M1436.94 688.72L1456.43 498.46" stroke="rgba(206, 233, 255, 1)" stroke-width="1.5"></path><path d="M1436.94 688.72L1600.57 551.99" stroke="rgba(206, 233, 255, 1)" stroke-width="1.5"></path><path d="M1436.94 688.72L1245.4 546.79" stroke="rgba(206, 233, 255, 1)" stroke-width="1.5"></path><path d="M1436.94 688.72L1144.66 665.04" stroke="rgba(206, 233, 255, 1)" stroke-width="1.5"></path><path d="M1545.94 103.36L1545.94 103.36" stroke="rgba(206, 233, 255, 1)" stroke-width="1.5"></path><path d="M1545.94 103.36L1593.71 191" stroke="rgba(206, 233, 255, 1)" stroke-width="1.5"></path><path d="M1545.94 103.36L1415.61 -73.25" stroke="rgba(206, 233, 255, 1)" stroke-width="1.5"></path><path d="M1545.94 103.36L1573.64 393.94" stroke="rgba(206, 233, 255, 1)" stroke-width="1.5"></path><path d="M1545.94 103.36L1238.91 213.6" stroke="rgba(206, 233, 255, 1)" stroke-width="1.5"></path><path d="M1593.71 191L1593.71 191" stroke="rgba(206, 233, 255, 1)" stroke-width="1.5"></path><path d="M1593.71 191L1573.64 393.94" stroke="rgba(206, 233, 255, 1)" stroke-width="1.5"></path><path d="M1573.64 393.94L1573.64 393.94" stroke="rgba(206, 233, 255, 1)" stroke-width="1.5"></path><path d="M1573.64 393.94L1600.57 551.99" stroke="rgba(206, 233, 255, 1)" stroke-width="1.5"></path><path d="M1573.64 393.94L1298.47 365.04" stroke="rgba(206, 233, 255, 1)" stroke-width="1.5"></path><path d="M1600.57 551.99L1600.57 551.99" stroke="rgba(206, 233, 255, 1)" stroke-width="1.5"></path><path d="M1600.57 551.99L1612 697.53" stroke="rgba(206, 233, 255, 1)" stroke-width="1.5"></path><path d="M1612 697.53L1612 697.53" stroke="rgba(206, 233, 255, 1)" stroke-width="1.5"></path><path d="M1612 697.53L1456.43 498.46" stroke="rgba(206, 233, 255, 1)" stroke-width="1.5"></path><circle r="5" cx="-88.47" cy="340.01" fill="rgba(206, 233, 255, 1)"></circle><circle r="5" cx="-107.74" cy="553.8" fill="rgba(206, 233, 255, 1)"></circle><circle r="5" cx="-65.17" cy="690.78" fill="rgba(206, 233, 255, 1)"></circle><circle r="5" cx="90.19" cy="388.23" fill="rgba(206, 233, 255, 1)"></circle><circle r="5" cx="212.87" cy="351.58" fill="rgba(206, 233, 255, 1)"></circle><circle r="5" cx="207.76" cy="507.98" fill="rgba(206, 233, 255, 1)"></circle><circle r="5" cx="259.06" cy="647.39" fill="rgba(206, 233, 255, 1)"></circle><circle r="5" cx="348.93" cy="534.81" fill="rgba(206, 233, 255, 1)"></circle><circle r="5" cx="353.55" cy="678.49" fill="rgba(206, 233, 255, 1)"></circle><circle r="5" cx="504.27" cy="388.4" fill="rgba(206, 233, 255, 1)"></circle><circle r="5" cx="488.47" cy="644.89" fill="rgba(206, 233, 255, 1)"></circle><circle r="5" cx="691.51" cy="214.22" fill="rgba(206, 233, 255, 1)"></circle><circle r="5" cx="664.06" cy="383.79" fill="rgba(206, 233, 255, 1)"></circle><circle r="5" cx="661.67" cy="517.63" fill="rgba(206, 233, 255, 1)"></circle><circle r="5" cx="820.84" cy="348.73" fill="rgba(206, 233, 255, 1)"></circle><circle r="5" cx="816.93" cy="508.11" fill="rgba(206, 233, 255, 1)"></circle><circle r="5" cx="862.46" cy="687.78" fill="rgba(206, 233, 255, 1)"></circle><circle r="5" cx="960.63" cy="-98.27" fill="rgba(206, 233, 255, 1)"></circle><circle r="5" cx="980.36" cy="70.91" fill="rgba(206, 233, 255, 1)"></circle><circle r="5" cx="981.93" cy="231.4" fill="rgba(206, 233, 255, 1)"></circle><circle r="5" cx="955.65" cy="395.4" fill="rgba(206, 233, 255, 1)"></circle><circle r="5" cx="994.05" cy="560.79" fill="rgba(206, 233, 255, 1)"></circle><circle r="5" cx="1006.7" cy="647.07" fill="rgba(206, 233, 255, 1)"></circle><circle r="5" cx="1091.34" cy="-46.82" fill="rgba(206, 233, 255, 1)"></circle><circle r="5" cx="1110.31" cy="40.07" fill="rgba(206, 233, 255, 1)"></circle><circle r="5" cx="1133.56" cy="257.74" fill="rgba(206, 233, 255, 1)"></circle><circle r="5" cx="1155.62" cy="405.17" fill="rgba(206, 233, 255, 1)"></circle><circle r="5" cx="1132.3" cy="551.28" fill="rgba(206, 233, 255, 1)"></circle><circle r="5" cx="1144.66" cy="665.04" fill="rgba(206, 233, 255, 1)"></circle><circle r="5" cx="1246.51" cy="-46.61" fill="rgba(206, 233, 255, 1)"></circle><circle r="5" cx="1238.91" cy="213.6" fill="rgba(206, 233, 255, 1)"></circle><circle r="5" cx="1298.47" cy="365.04" fill="rgba(206, 233, 255, 1)"></circle><circle r="5" cx="1245.4" cy="546.79" fill="rgba(206, 233, 255, 1)"></circle><circle r="5" cx="1415.61" cy="-73.25" fill="rgba(206, 233, 255, 1)"></circle><circle r="5" cx="1436.06" cy="39.62" fill="rgba(206, 233, 255, 1)"></circle><circle r="5" cx="1419.95" cy="230.28" fill="rgba(206, 233, 255, 1)"></circle><circle r="5" cx="1456.43" cy="498.46" fill="rgba(206, 233, 255, 1)"></circle><circle r="5" cx="1436.94" cy="688.72" fill="rgba(206, 233, 255, 1)"></circle><circle r="5" cx="1545.94" cy="103.36" fill="rgba(206, 233, 255, 1)"></circle><circle r="5" cx="1593.71" cy="191" fill="rgba(206, 233, 255, 1)"></circle><circle r="5" cx="1573.64" cy="393.94" fill="rgba(206, 233, 255, 1)"></circle><circle r="5" cx="1600.57" cy="551.99" fill="rgba(206, 233, 255, 1)"></circle><circle r="5" cx="1612" cy="697.53" fill="rgba(206, 233, 255, 1)"></circle><path d="M405.36 667.39L405.36 667.39" stroke="hsl(198.10000000000002, 100%, 94.6%)" stroke-width="1.5"></path><path d="M405.36 667.39L412.35 562.41" stroke="hsl(198.10000000000002, 100%, 94.6%)" stroke-width="1.5"></path><path d="M405.36 667.39L519.84 687.19" stroke="hsl(198.10000000000002, 100%, 94.6%)" stroke-width="1.5"></path><path d="M849.12 512.84L849.12 512.84" stroke="hsl(198.10000000000002, 100%, 94.6%)" stroke-width="1.5"></path><path d="M849.12 512.84L938.07 540.11" stroke="hsl(198.10000000000002, 100%, 94.6%)" stroke-width="1.5"></path><path d="M849.12 512.84L846.95 381.01" stroke="hsl(198.10000000000002, 100%, 94.6%)" stroke-width="1.5"></path><path d="M849.12 512.84L699.41 551.98" stroke="hsl(198.10000000000002, 100%, 94.6%)" stroke-width="1.5"></path><path d="M849.12 512.84L814.5 688.45" stroke="hsl(198.10000000000002, 100%, 94.6%)" stroke-width="1.5"></path><path d="M1129.89 96.74L1129.89 96.74" stroke="hsl(198.10000000000002, 100%, 94.6%)" stroke-width="1.5"></path><path d="M1129.89 96.74L1238.96 82.48" stroke="hsl(198.10000000000002, 100%, 94.6%)" stroke-width="1.5"></path><path d="M1129.89 96.74L1148.34 218.19" stroke="hsl(198.10000000000002, 100%, 94.6%)" stroke-width="1.5"></path><path d="M1129.89 96.74L991.81 244.85" stroke="hsl(198.10000000000002, 100%, 94.6%)" stroke-width="1.5"></path><path d="M1129.89 96.74L1309.3 232.32" stroke="hsl(198.10000000000002, 100%, 94.6%)" stroke-width="1.5"></path><path d="M1129.89 96.74L1275.57 -77.43" stroke="hsl(198.10000000000002, 100%, 94.6%)" stroke-width="1.5"></path><path d="M1129.89 96.74L1095.31 343.76" stroke="hsl(198.10000000000002, 100%, 94.6%)" stroke-width="1.5"></path><path d="M1148.34 218.19L1148.34 218.19" stroke="hsl(198.10000000000002, 100%, 94.6%)" stroke-width="1.5"></path><path d="M1148.34 218.19L1095.31 343.76" stroke="hsl(198.10000000000002, 100%, 94.6%)" stroke-width="1.5"></path><path d="M1148.34 218.19L991.81 244.85" stroke="hsl(198.10000000000002, 100%, 94.6%)" stroke-width="1.5"></path><path d="M1148.34 218.19L1309.3 232.32" stroke="hsl(198.10000000000002, 100%, 94.6%)" stroke-width="1.5"></path><path d="M1148.34 218.19L1238.96 82.48" stroke="hsl(198.10000000000002, 100%, 94.6%)" stroke-width="1.5"></path><path d="M1148.34 218.19L1247.78 410.99" stroke="hsl(198.10000000000002, 100%, 94.6%)" stroke-width="1.5"></path><path d="M1143.8 506.43L1143.8 506.43" stroke="hsl(198.10000000000002, 100%, 94.6%)" stroke-width="1.5"></path><path d="M1143.8 506.43L1265.7 542.64" stroke="hsl(198.10000000000002, 100%, 94.6%)" stroke-width="1.5"></path><path d="M1143.8 506.43L1247.78 410.99" stroke="hsl(198.10000000000002, 100%, 94.6%)" stroke-width="1.5"></path><path d="M1143.8 506.43L1095.31 343.76" stroke="hsl(198.10000000000002, 100%, 94.6%)" stroke-width="1.5"></path><path d="M1105.69 675.65L1105.69 675.65" stroke="hsl(198.10000000000002, 100%, 94.6%)" stroke-width="1.5"></path><path d="M1105.69 675.65L981.92 677.67" stroke="hsl(198.10000000000002, 100%, 94.6%)" stroke-width="1.5"></path><path d="M1105.69 675.65L1237.86 691.77" stroke="hsl(198.10000000000002, 100%, 94.6%)" stroke-width="1.5"></path><path d="M1105.69 675.65L1143.8 506.43" stroke="hsl(198.10000000000002, 100%, 94.6%)" stroke-width="1.5"></path><path d="M1105.69 675.65L1265.7 542.64" stroke="hsl(198.10000000000002, 100%, 94.6%)" stroke-width="1.5"></path><path d="M1105.69 675.65L938.07 540.11" stroke="hsl(198.10000000000002, 100%, 94.6%)" stroke-width="1.5"></path><path d="M1105.69 675.65L814.5 688.45" stroke="hsl(198.10000000000002, 100%, 94.6%)" stroke-width="1.5"></path><path d="M1237.86 691.77L1237.86 691.77" stroke="hsl(198.10000000000002, 100%, 94.6%)" stroke-width="1.5"></path><path d="M1605.17 704.5L1605.17 704.5" stroke="hsl(198.10000000000002, 100%, 94.6%)" stroke-width="1.5"></path><path d="M1605.17 704.5L1565.56 550.54" stroke="hsl(198.10000000000002, 100%, 94.6%)" stroke-width="1.5"></path><path d="M-65.79 506.73L-65.79 506.73" stroke="hsl(198.10000000000002, 100%, 94.6%)" stroke-width="1.5"></path><path d="M-65.79 506.73L66.81 547.26" stroke="hsl(198.10000000000002, 100%, 94.6%)" stroke-width="1.5"></path><path d="M-65.79 506.73L-76.73 703.19" stroke="hsl(198.10000000000002, 100%, 94.6%)" stroke-width="1.5"></path><path d="M-65.79 506.73L210.27 539.88" stroke="hsl(198.10000000000002, 100%, 94.6%)" stroke-width="1.5"></path><path d="M-65.79 506.73L237.17 676.41" stroke="hsl(198.10000000000002, 100%, 94.6%)" stroke-width="1.5"></path><path d="M-65.79 506.73L412.35 562.41" stroke="hsl(198.10000000000002, 100%, 94.6%)" stroke-width="1.5"></path><path d="M-76.73 703.19L-76.73 703.19" stroke="hsl(198.10000000000002, 100%, 94.6%)" stroke-width="1.5"></path><path d="M-76.73 703.19L66.81 547.26" stroke="hsl(198.10000000000002, 100%, 94.6%)" stroke-width="1.5"></path><path d="M-76.73 703.19L237.17 676.41" stroke="hsl(198.10000000000002, 100%, 94.6%)" stroke-width="1.5"></path><path d="M66.81 547.26L66.81 547.26" stroke="hsl(198.10000000000002, 100%, 94.6%)" stroke-width="1.5"></path><path d="M210.27 539.88L210.27 539.88" stroke="hsl(198.10000000000002, 100%, 94.6%)" stroke-width="1.5"></path><path d="M210.27 539.88L237.17 676.41" stroke="hsl(198.10000000000002, 100%, 94.6%)" stroke-width="1.5"></path><path d="M210.27 539.88L66.81 547.26" stroke="hsl(198.10000000000002, 100%, 94.6%)" stroke-width="1.5"></path><path d="M210.27 539.88L412.35 562.41" stroke="hsl(198.10000000000002, 100%, 94.6%)" stroke-width="1.5"></path><path d="M210.27 539.88L405.36 667.39" stroke="hsl(198.10000000000002, 100%, 94.6%)" stroke-width="1.5"></path><path d="M237.17 676.41L237.17 676.41" stroke="hsl(198.10000000000002, 100%, 94.6%)" stroke-width="1.5"></path><path d="M237.17 676.41L405.36 667.39" stroke="hsl(198.10000000000002, 100%, 94.6%)" stroke-width="1.5"></path><path d="M237.17 676.41L412.35 562.41" stroke="hsl(198.10000000000002, 100%, 94.6%)" stroke-width="1.5"></path><path d="M237.17 676.41L66.81 547.26" stroke="hsl(198.10000000000002, 100%, 94.6%)" stroke-width="1.5"></path><path d="M237.17 676.41L519.84 687.19" stroke="hsl(198.10000000000002, 100%, 94.6%)" stroke-width="1.5"></path><path d="M412.35 562.41L412.35 562.41" stroke="hsl(198.10000000000002, 100%, 94.6%)" stroke-width="1.5"></path><path d="M412.35 562.41L499.88 499.89" stroke="hsl(198.10000000000002, 100%, 94.6%)" stroke-width="1.5"></path><path d="M499.88 499.89L499.88 499.89" stroke="hsl(198.10000000000002, 100%, 94.6%)" stroke-width="1.5"></path><path d="M499.88 499.89L519.84 687.19" stroke="hsl(198.10000000000002, 100%, 94.6%)" stroke-width="1.5"></path><path d="M499.88 499.89L405.36 667.39" stroke="hsl(198.10000000000002, 100%, 94.6%)" stroke-width="1.5"></path><path d="M499.88 499.89L699.41 551.98" stroke="hsl(198.10000000000002, 100%, 94.6%)" stroke-width="1.5"></path><path d="M499.88 499.89L663.67 667.27" stroke="hsl(198.10000000000002, 100%, 94.6%)" stroke-width="1.5"></path><path d="M499.88 499.89L210.27 539.88" stroke="hsl(198.10000000000002, 100%, 94.6%)" stroke-width="1.5"></path><path d="M519.84 687.19L519.84 687.19" stroke="hsl(198.10000000000002, 100%, 94.6%)" stroke-width="1.5"></path><path d="M519.84 687.19L663.67 667.27" stroke="hsl(198.10000000000002, 100%, 94.6%)" stroke-width="1.5"></path><path d="M519.84 687.19L412.35 562.41" stroke="hsl(198.10000000000002, 100%, 94.6%)" stroke-width="1.5"></path><path d="M699.41 551.98L699.41 551.98" stroke="hsl(198.10000000000002, 100%, 94.6%)" stroke-width="1.5"></path><path d="M699.41 551.98L663.67 667.27" stroke="hsl(198.10000000000002, 100%, 94.6%)" stroke-width="1.5"></path><path d="M699.41 551.98L814.5 688.45" stroke="hsl(198.10000000000002, 100%, 94.6%)" stroke-width="1.5"></path><path d="M663.67 667.27L663.67 667.27" stroke="hsl(198.10000000000002, 100%, 94.6%)" stroke-width="1.5"></path><path d="M663.67 667.27L814.5 688.45" stroke="hsl(198.10000000000002, 100%, 94.6%)" stroke-width="1.5"></path><path d="M846.95 381.01L846.95 381.01" stroke="hsl(198.10000000000002, 100%, 94.6%)" stroke-width="1.5"></path><path d="M846.95 381.01L1008.41 396.28" stroke="hsl(198.10000000000002, 100%, 94.6%)" stroke-width="1.5"></path><path d="M846.95 381.01L938.07 540.11" stroke="hsl(198.10000000000002, 100%, 94.6%)" stroke-width="1.5"></path><path d="M846.95 381.01L991.81 244.85" stroke="hsl(198.10000000000002, 100%, 94.6%)" stroke-width="1.5"></path><path d="M846.95 381.01L699.41 551.98" stroke="hsl(198.10000000000002, 100%, 94.6%)" stroke-width="1.5"></path><path d="M846.95 381.01L1095.31 343.76" stroke="hsl(198.10000000000002, 100%, 94.6%)" stroke-width="1.5"></path><path d="M814.5 688.45L814.5 688.45" stroke="hsl(198.10000000000002, 100%, 94.6%)" stroke-width="1.5"></path><path d="M814.5 688.45L981.92 677.67" stroke="hsl(198.10000000000002, 100%, 94.6%)" stroke-width="1.5"></path><path d="M991.81 244.85L991.81 244.85" stroke="hsl(198.10000000000002, 100%, 94.6%)" stroke-width="1.5"></path><path d="M991.81 244.85L1095.31 343.76" stroke="hsl(198.10000000000002, 100%, 94.6%)" stroke-width="1.5"></path><path d="M991.81 244.85L1008.41 396.28" stroke="hsl(198.10000000000002, 100%, 94.6%)" stroke-width="1.5"></path><path d="M991.81 244.85L1238.96 82.48" stroke="hsl(198.10000000000002, 100%, 94.6%)" stroke-width="1.5"></path><path d="M1008.41 396.28L1008.41 396.28" stroke="hsl(198.10000000000002, 100%, 94.6%)" stroke-width="1.5"></path><path d="M1008.41 396.28L1095.31 343.76" stroke="hsl(198.10000000000002, 100%, 94.6%)" stroke-width="1.5"></path><path d="M1008.41 396.28L938.07 540.11" stroke="hsl(198.10000000000002, 100%, 94.6%)" stroke-width="1.5"></path><path d="M1008.41 396.28L1143.8 506.43" stroke="hsl(198.10000000000002, 100%, 94.6%)" stroke-width="1.5"></path><path d="M938.07 540.11L938.07 540.11" stroke="hsl(198.10000000000002, 100%, 94.6%)" stroke-width="1.5"></path><path d="M938.07 540.11L981.92 677.67" stroke="hsl(198.10000000000002, 100%, 94.6%)" stroke-width="1.5"></path><path d="M981.92 677.67L981.92 677.67" stroke="hsl(198.10000000000002, 100%, 94.6%)" stroke-width="1.5"></path><path d="M981.92 677.67L849.12 512.84" stroke="hsl(198.10000000000002, 100%, 94.6%)" stroke-width="1.5"></path><path d="M981.92 677.67L1143.8 506.43" stroke="hsl(198.10000000000002, 100%, 94.6%)" stroke-width="1.5"></path><path d="M1095.31 343.76L1095.31 343.76" stroke="hsl(198.10000000000002, 100%, 94.6%)" stroke-width="1.5"></path><path d="M1095.31 343.76L1247.78 410.99" stroke="hsl(198.10000000000002, 100%, 94.6%)" stroke-width="1.5"></path><path d="M1275.57 -77.43L1275.57 -77.43" stroke="hsl(198.10000000000002, 100%, 94.6%)" stroke-width="1.5"></path><path d="M1275.57 -77.43L1238.96 82.48" stroke="hsl(198.10000000000002, 100%, 94.6%)" stroke-width="1.5"></path><path d="M1275.57 -77.43L1411.85 94.75" stroke="hsl(198.10000000000002, 100%, 94.6%)" stroke-width="1.5"></path><path d="M1275.57 -77.43L1554.35 -85.23" stroke="hsl(198.10000000000002, 100%, 94.6%)" stroke-width="1.5"></path><path d="M1275.57 -77.43L1309.3 232.32" stroke="hsl(198.10000000000002, 100%, 94.6%)" stroke-width="1.5"></path><path d="M1275.57 -77.43L1148.34 218.19" stroke="hsl(198.10000000000002, 100%, 94.6%)" stroke-width="1.5"></path><path d="M1238.96 82.48L1238.96 82.48" stroke="hsl(198.10000000000002, 100%, 94.6%)" stroke-width="1.5"></path><path d="M1238.96 82.48L1309.3 232.32" stroke="hsl(198.10000000000002, 100%, 94.6%)" stroke-width="1.5"></path><path d="M1309.3 232.32L1309.3 232.32" stroke="hsl(198.10000000000002, 100%, 94.6%)" stroke-width="1.5"></path><path d="M1309.3 232.32L1450.02 240.13" stroke="hsl(198.10000000000002, 100%, 94.6%)" stroke-width="1.5"></path><path d="M1309.3 232.32L1411.85 94.75" stroke="hsl(198.10000000000002, 100%, 94.6%)" stroke-width="1.5"></path><path d="M1309.3 232.32L1425.8 370.84" stroke="hsl(198.10000000000002, 100%, 94.6%)" stroke-width="1.5"></path><path d="M1247.78 410.99L1247.78 410.99" stroke="hsl(198.10000000000002, 100%, 94.6%)" stroke-width="1.5"></path><path d="M1247.78 410.99L1265.7 542.64" stroke="hsl(198.10000000000002, 100%, 94.6%)" stroke-width="1.5"></path><path d="M1247.78 410.99L1402.58 498.96" stroke="hsl(198.10000000000002, 100%, 94.6%)" stroke-width="1.5"></path><path d="M1247.78 410.99L1425.8 370.84" stroke="hsl(198.10000000000002, 100%, 94.6%)" stroke-width="1.5"></path><path d="M1247.78 410.99L1309.3 232.32" stroke="hsl(198.10000000000002, 100%, 94.6%)" stroke-width="1.5"></path><path d="M1265.7 542.64L1265.7 542.64" stroke="hsl(198.10000000000002, 100%, 94.6%)" stroke-width="1.5"></path><path d="M1411.85 94.75L1411.85 94.75" stroke="hsl(198.10000000000002, 100%, 94.6%)" stroke-width="1.5"></path><path d="M1411.85 94.75L1450.02 240.13" stroke="hsl(198.10000000000002, 100%, 94.6%)" stroke-width="1.5"></path><path d="M1411.85 94.75L1568.08 63.14" stroke="hsl(198.10000000000002, 100%, 94.6%)" stroke-width="1.5"></path><path d="M1411.85 94.75L1238.96 82.48" stroke="hsl(198.10000000000002, 100%, 94.6%)" stroke-width="1.5"></path><path d="M1450.02 240.13L1450.02 240.13" stroke="hsl(198.10000000000002, 100%, 94.6%)" stroke-width="1.5"></path><path d="M1450.02 240.13L1561.37 238.18" stroke="hsl(198.10000000000002, 100%, 94.6%)" stroke-width="1.5"></path><path d="M1450.02 240.13L1425.8 370.84" stroke="hsl(198.10000000000002, 100%, 94.6%)" stroke-width="1.5"></path><path d="M1425.8 370.84L1425.8 370.84" stroke="hsl(198.10000000000002, 100%, 94.6%)" stroke-width="1.5"></path><path d="M1425.8 370.84L1402.58 498.96" stroke="hsl(198.10000000000002, 100%, 94.6%)" stroke-width="1.5"></path><path d="M1402.58 498.96L1402.58 498.96" stroke="hsl(198.10000000000002, 100%, 94.6%)" stroke-width="1.5"></path><path d="M1402.58 498.96L1265.7 542.64" stroke="hsl(198.10000000000002, 100%, 94.6%)" stroke-width="1.5"></path><path d="M1402.58 498.96L1450.19 658.13" stroke="hsl(198.10000000000002, 100%, 94.6%)" stroke-width="1.5"></path><path d="M1450.19 658.13L1450.19 658.13" stroke="hsl(198.10000000000002, 100%, 94.6%)" stroke-width="1.5"></path><path d="M1450.19 658.13L1565.56 550.54" stroke="hsl(198.10000000000002, 100%, 94.6%)" stroke-width="1.5"></path><path d="M1450.19 658.13L1605.17 704.5" stroke="hsl(198.10000000000002, 100%, 94.6%)" stroke-width="1.5"></path><path d="M1450.19 658.13L1237.86 691.77" stroke="hsl(198.10000000000002, 100%, 94.6%)" stroke-width="1.5"></path><path d="M1554.35 -85.23L1554.35 -85.23" stroke="hsl(198.10000000000002, 100%, 94.6%)" stroke-width="1.5"></path><path d="M1554.35 -85.23L1568.08 63.14" stroke="hsl(198.10000000000002, 100%, 94.6%)" stroke-width="1.5"></path><path d="M1554.35 -85.23L1411.85 94.75" stroke="hsl(198.10000000000002, 100%, 94.6%)" stroke-width="1.5"></path><path d="M1568.08 63.14L1568.08 63.14" stroke="hsl(198.10000000000002, 100%, 94.6%)" stroke-width="1.5"></path><path d="M1568.08 63.14L1561.37 238.18" stroke="hsl(198.10000000000002, 100%, 94.6%)" stroke-width="1.5"></path><path d="M1568.08 63.14L1450.02 240.13" stroke="hsl(198.10000000000002, 100%, 94.6%)" stroke-width="1.5"></path><path d="M1568.08 63.14L1309.3 232.32" stroke="hsl(198.10000000000002, 100%, 94.6%)" stroke-width="1.5"></path><path d="M1568.08 63.14L1565.25 382.22" stroke="hsl(198.10000000000002, 100%, 94.6%)" stroke-width="1.5"></path><path d="M1561.37 238.18L1561.37 238.18" stroke="hsl(198.10000000000002, 100%, 94.6%)" stroke-width="1.5"></path><path d="M1561.37 238.18L1565.25 382.22" stroke="hsl(198.10000000000002, 100%, 94.6%)" stroke-width="1.5"></path><path d="M1561.37 238.18L1425.8 370.84" stroke="hsl(198.10000000000002, 100%, 94.6%)" stroke-width="1.5"></path><path d="M1561.37 238.18L1411.85 94.75" stroke="hsl(198.10000000000002, 100%, 94.6%)" stroke-width="1.5"></path><path d="M1565.25 382.22L1565.25 382.22" stroke="hsl(198.10000000000002, 100%, 94.6%)" stroke-width="1.5"></path><path d="M1565.25 382.22L1425.8 370.84" stroke="hsl(198.10000000000002, 100%, 94.6%)" stroke-width="1.5"></path><path d="M1565.25 382.22L1565.56 550.54" stroke="hsl(198.10000000000002, 100%, 94.6%)" stroke-width="1.5"></path><path d="M1565.25 382.22L1450.02 240.13" stroke="hsl(198.10000000000002, 100%, 94.6%)" stroke-width="1.5"></path><path d="M1565.56 550.54L1565.56 550.54" stroke="hsl(198.10000000000002, 100%, 94.6%)" stroke-width="1.5"></path><circle r="25" cx="405.36" cy="667.39" fill="url(#SvgjsRadialGradient1047)"></circle><circle r="25" cx="849.12" cy="512.84" fill="url(#SvgjsRadialGradient1047)"></circle><circle r="25" cx="1129.89" cy="96.74" fill="url(#SvgjsRadialGradient1047)"></circle><circle r="25" cx="1148.34" cy="218.19" fill="url(#SvgjsRadialGradient1047)"></circle><circle r="25" cx="1143.8" cy="506.43" fill="url(#SvgjsRadialGradient1047)"></circle><circle r="25" cx="1105.69" cy="675.65" fill="url(#SvgjsRadialGradient1047)"></circle><circle r="25" cx="1237.86" cy="691.77" fill="url(#SvgjsRadialGradient1047)"></circle><circle r="25" cx="1605.17" cy="704.5" fill="url(#SvgjsRadialGradient1047)"></circle><circle r="5" cx="-65.79" cy="506.73" fill="#baeaff"></circle><circle r="5" cx="-76.73" cy="703.19" fill="#baeaff"></circle><circle r="5" cx="66.81" cy="547.26" fill="#baeaff"></circle><circle r="5" cx="210.27" cy="539.88" fill="#baeaff"></circle><circle r="5" cx="237.17" cy="676.41" fill="#baeaff"></circle><circle r="5" cx="412.35" cy="562.41" fill="#baeaff"></circle><circle r="5" cx="499.88" cy="499.89" fill="#baeaff"></circle><circle r="5" cx="519.84" cy="687.19" fill="#baeaff"></circle><circle r="5" cx="699.41" cy="551.98" fill="#baeaff"></circle><circle r="5" cx="663.67" cy="667.27" fill="#baeaff"></circle><circle r="5" cx="846.95" cy="381.01" fill="#baeaff"></circle><circle r="5" cx="814.5" cy="688.45" fill="#baeaff"></circle><circle r="5" cx="991.81" cy="244.85" fill="#baeaff"></circle><circle r="5" cx="1008.41" cy="396.28" fill="#baeaff"></circle><circle r="5" cx="938.07" cy="540.11" fill="#baeaff"></circle><circle r="5" cx="981.92" cy="677.67" fill="#baeaff"></circle><circle r="5" cx="1095.31" cy="343.76" fill="#baeaff"></circle><circle r="5" cx="1275.57" cy="-77.43" fill="#baeaff"></circle><circle r="5" cx="1238.96" cy="82.48" fill="#baeaff"></circle><circle r="5" cx="1309.3" cy="232.32" fill="#baeaff"></circle><circle r="5" cx="1247.78" cy="410.99" fill="#baeaff"></circle><circle r="5" cx="1265.7" cy="542.64" fill="#baeaff"></circle><circle r="5" cx="1411.85" cy="94.75" fill="#baeaff"></circle><circle r="5" cx="1450.02" cy="240.13" fill="#baeaff"></circle><circle r="5" cx="1425.8" cy="370.84" fill="#baeaff"></circle><circle r="5" cx="1402.58" cy="498.96" fill="#baeaff"></circle><circle r="5" cx="1450.19" cy="658.13" fill="#baeaff"></circle><circle r="5" cx="1554.35" cy="-85.23" fill="#baeaff"></circle><circle r="5" cx="1568.08" cy="63.14" fill="#baeaff"></circle><circle r="5" cx="1561.37" cy="238.18" fill="#baeaff"></circle><circle r="5" cx="1565.25" cy="382.22" fill="#baeaff"></circle><circle r="5" cx="1565.56" cy="550.54" fill="#baeaff"></circle></g><defs><mask id="SvgjsMask1046"><rect width="1440" height="560" fill="#ffffff"></rect></mask><radialGradient id="SvgjsRadialGradient1047"><stop stop-color="#ffffff" offset="0.1"></stop><stop stop-color="rgba(116, 213, 255, 1)" offset="0.2"></stop><stop stop-color="rgba(116, 213, 255, 0)" offset="1"></stop></radialGradient></defs></svg>