<svg xmlns="http://www.w3.org/2000/svg" version="1.1" xmlns:xlink="http://www.w3.org/1999/xlink" xmlns:svgjs="http://svgjs.com/svgjs" width="1448" height="600" preserveAspectRatio="none" viewBox="0 0 1448 600"><g mask="url(&quot;#SvgjsMask1048&quot;)" fill="none"><rect width="1448" height="600" x="0" y="0" fill="rgba(183, 218, 255, 1)"></rect><path d="M-108.69 526.03L-108.69 526.03" stroke="rgba(206, 233, 255, 1)" stroke-width="1.5"></path><path d="M-108.69 526.03L-99.22 661.81" stroke="rgba(206, 233, 255, 1)" stroke-width="1.5"></path><path d="M-108.69 526.03L101.48 687.47" stroke="rgba(206, 233, 255, 1)" stroke-width="1.5"></path><path d="M-108.69 526.03L262.07 395.29" stroke="rgba(206, 233, 255, 1)" stroke-width="1.5"></path><path d="M-99.22 661.81L-99.22 661.81" stroke="rgba(206, 233, 255, 1)" stroke-width="1.5"></path><path d="M-99.22 661.81L101.48 687.47" stroke="rgba(206, 233, 255, 1)" stroke-width="1.5"></path><path d="M-99.22 661.81L255.04 704.27" stroke="rgba(206, 233, 255, 1)" stroke-width="1.5"></path><path d="M-99.22 661.81L262.07 395.29" stroke="rgba(206, 233, 255, 1)" stroke-width="1.5"></path><path d="M-99.22 661.81L385.34 653.3" stroke="rgba(206, 233, 255, 1)" stroke-width="1.5"></path><path d="M-99.22 661.81L404.65 494.73" stroke="rgba(206, 233, 255, 1)" stroke-width="1.5"></path><path d="M101.48 687.47L101.48 687.47" stroke="rgba(206, 233, 255, 1)" stroke-width="1.5"></path><path d="M101.48 687.47L255.04 704.27" stroke="rgba(206, 233, 255, 1)" stroke-width="1.5"></path><path d="M101.48 687.47L385.34 653.3" stroke="rgba(206, 233, 255, 1)" stroke-width="1.5"></path><path d="M101.48 687.47L262.07 395.29" stroke="rgba(206, 233, 255, 1)" stroke-width="1.5"></path><path d="M262.07 395.29L262.07 395.29" stroke="rgba(206, 233, 255, 1)" stroke-width="1.5"></path><path d="M262.07 395.29L364.61 338.45" stroke="rgba(206, 233, 255, 1)" stroke-width="1.5"></path><path d="M262.07 395.29L404.65 494.73" stroke="rgba(206, 233, 255, 1)" stroke-width="1.5"></path><path d="M262.07 395.29L514.49 359.88" stroke="rgba(206, 233, 255, 1)" stroke-width="1.5"></path><path d="M262.07 395.29L385.34 653.3" stroke="rgba(206, 233, 255, 1)" stroke-width="1.5"></path><path d="M262.07 395.29L255.04 704.27" stroke="rgba(206, 233, 255, 1)" stroke-width="1.5"></path><path d="M262.07 395.29L547.84 557.28" stroke="rgba(206, 233, 255, 1)" stroke-width="1.5"></path><path d="M255.04 704.27L255.04 704.27" stroke="rgba(206, 233, 255, 1)" stroke-width="1.5"></path><path d="M255.04 704.27L385.34 653.3" stroke="rgba(206, 233, 255, 1)" stroke-width="1.5"></path><path d="M255.04 704.27L404.65 494.73" stroke="rgba(206, 233, 255, 1)" stroke-width="1.5"></path><path d="M255.04 704.27L540.37 702.6" stroke="rgba(206, 233, 255, 1)" stroke-width="1.5"></path><path d="M364.61 338.45L364.61 338.45" stroke="rgba(206, 233, 255, 1)" stroke-width="1.5"></path><path d="M364.61 338.45L514.49 359.88" stroke="rgba(206, 233, 255, 1)" stroke-width="1.5"></path><path d="M364.61 338.45L404.65 494.73" stroke="rgba(206, 233, 255, 1)" stroke-width="1.5"></path><path d="M364.61 338.45L649.72 343.84" stroke="rgba(206, 233, 255, 1)" stroke-width="1.5"></path><path d="M404.65 494.73L404.65 494.73" stroke="rgba(206, 233, 255, 1)" stroke-width="1.5"></path><path d="M404.65 494.73L547.84 557.28" stroke="rgba(206, 233, 255, 1)" stroke-width="1.5"></path><path d="M404.65 494.73L385.34 653.3" stroke="rgba(206, 233, 255, 1)" stroke-width="1.5"></path><path d="M385.34 653.3L385.34 653.3" stroke="rgba(206, 233, 255, 1)" stroke-width="1.5"></path><path d="M385.34 653.3L540.37 702.6" stroke="rgba(206, 233, 255, 1)" stroke-width="1.5"></path><path d="M385.34 653.3L547.84 557.28" stroke="rgba(206, 233, 255, 1)" stroke-width="1.5"></path><path d="M514.49 359.88L514.49 359.88" stroke="rgba(206, 233, 255, 1)" stroke-width="1.5"></path><path d="M514.49 359.88L649.72 343.84" stroke="rgba(206, 233, 255, 1)" stroke-width="1.5"></path><path d="M514.49 359.88L404.65 494.73" stroke="rgba(206, 233, 255, 1)" stroke-width="1.5"></path><path d="M514.49 359.88L547.84 557.28" stroke="rgba(206, 233, 255, 1)" stroke-width="1.5"></path><path d="M547.84 557.28L547.84 557.28" stroke="rgba(206, 233, 255, 1)" stroke-width="1.5"></path><path d="M547.84 557.28L678.26 495.26" stroke="rgba(206, 233, 255, 1)" stroke-width="1.5"></path><path d="M547.84 557.28L540.37 702.6" stroke="rgba(206, 233, 255, 1)" stroke-width="1.5"></path><path d="M540.37 702.6L540.37 702.6" stroke="rgba(206, 233, 255, 1)" stroke-width="1.5"></path><path d="M705.36 229.99L705.36 229.99" stroke="rgba(206, 233, 255, 1)" stroke-width="1.5"></path><path d="M705.36 229.99L793.39 211.01" stroke="rgba(206, 233, 255, 1)" stroke-width="1.5"></path><path d="M705.36 229.99L649.72 343.84" stroke="rgba(206, 233, 255, 1)" stroke-width="1.5"></path><path d="M705.36 229.99L812.32 388.02" stroke="rgba(206, 233, 255, 1)" stroke-width="1.5"></path><path d="M649.72 343.84L649.72 343.84" stroke="rgba(206, 233, 255, 1)" stroke-width="1.5"></path><path d="M649.72 343.84L678.26 495.26" stroke="rgba(206, 233, 255, 1)" stroke-width="1.5"></path><path d="M649.72 343.84L812.32 388.02" stroke="rgba(206, 233, 255, 1)" stroke-width="1.5"></path><path d="M649.72 343.84L793.39 211.01" stroke="rgba(206, 233, 255, 1)" stroke-width="1.5"></path><path d="M678.26 495.26L678.26 495.26" stroke="rgba(206, 233, 255, 1)" stroke-width="1.5"></path><path d="M793.39 211.01L793.39 211.01" stroke="rgba(206, 233, 255, 1)" stroke-width="1.5"></path><path d="M812.32 388.02L812.32 388.02" stroke="rgba(206, 233, 255, 1)" stroke-width="1.5"></path><path d="M812.32 388.02L678.26 495.26" stroke="rgba(206, 233, 255, 1)" stroke-width="1.5"></path><path d="M812.32 388.02L850.16 555.59" stroke="rgba(206, 233, 255, 1)" stroke-width="1.5"></path><path d="M812.32 388.02L793.39 211.01" stroke="rgba(206, 233, 255, 1)" stroke-width="1.5"></path><path d="M812.32 388.02L1004.2 397.62" stroke="rgba(206, 233, 255, 1)" stroke-width="1.5"></path><path d="M850.16 555.59L850.16 555.59" stroke="rgba(206, 233, 255, 1)" stroke-width="1.5"></path><path d="M850.16 555.59L957.33 516.53" stroke="rgba(206, 233, 255, 1)" stroke-width="1.5"></path><path d="M850.16 555.59L972.28 641.98" stroke="rgba(206, 233, 255, 1)" stroke-width="1.5"></path><path d="M965.51 -95.37L965.51 -95.37" stroke="rgba(206, 233, 255, 1)" stroke-width="1.5"></path><path d="M965.51 -95.37L1094.55 -87.88" stroke="rgba(206, 233, 255, 1)" stroke-width="1.5"></path><path d="M965.51 -95.37L1007.98 69.69" stroke="rgba(206, 233, 255, 1)" stroke-width="1.5"></path><path d="M965.51 -95.37L1118.99 76.22" stroke="rgba(206, 233, 255, 1)" stroke-width="1.5"></path><path d="M1007.98 69.69L1007.98 69.69" stroke="rgba(206, 233, 255, 1)" stroke-width="1.5"></path><path d="M1007.98 69.69L1118.99 76.22" stroke="rgba(206, 233, 255, 1)" stroke-width="1.5"></path><path d="M1007.98 69.69L951.45 207.67" stroke="rgba(206, 233, 255, 1)" stroke-width="1.5"></path><path d="M951.45 207.67L951.45 207.67" stroke="rgba(206, 233, 255, 1)" stroke-width="1.5"></path><path d="M951.45 207.67L793.39 211.01" stroke="rgba(206, 233, 255, 1)" stroke-width="1.5"></path><path d="M951.45 207.67L1004.2 397.62" stroke="rgba(206, 233, 255, 1)" stroke-width="1.5"></path><path d="M951.45 207.67L1151.53 216.06" stroke="rgba(206, 233, 255, 1)" stroke-width="1.5"></path><path d="M1004.2 397.62L1004.2 397.62" stroke="rgba(206, 233, 255, 1)" stroke-width="1.5"></path><path d="M1004.2 397.62L1111.41 394.5" stroke="rgba(206, 233, 255, 1)" stroke-width="1.5"></path><path d="M1004.2 397.62L957.33 516.53" stroke="rgba(206, 233, 255, 1)" stroke-width="1.5"></path><path d="M1004.2 397.62L1109.64 516.23" stroke="rgba(206, 233, 255, 1)" stroke-width="1.5"></path><path d="M957.33 516.53L957.33 516.53" stroke="rgba(206, 233, 255, 1)" stroke-width="1.5"></path><path d="M957.33 516.53L972.28 641.98" stroke="rgba(206, 233, 255, 1)" stroke-width="1.5"></path><path d="M972.28 641.98L972.28 641.98" stroke="rgba(206, 233, 255, 1)" stroke-width="1.5"></path><path d="M972.28 641.98L1116.79 682.94" stroke="rgba(206, 233, 255, 1)" stroke-width="1.5"></path><path d="M972.28 641.98L1109.64 516.23" stroke="rgba(206, 233, 255, 1)" stroke-width="1.5"></path><path d="M972.28 641.98L1004.2 397.62" stroke="rgba(206, 233, 255, 1)" stroke-width="1.5"></path><path d="M972.28 641.98L1111.41 394.5" stroke="rgba(206, 233, 255, 1)" stroke-width="1.5"></path><path d="M1094.55 -87.88L1094.55 -87.88" stroke="rgba(206, 233, 255, 1)" stroke-width="1.5"></path><path d="M1094.55 -87.88L1118.99 76.22" stroke="rgba(206, 233, 255, 1)" stroke-width="1.5"></path><path d="M1094.55 -87.88L1007.98 69.69" stroke="rgba(206, 233, 255, 1)" stroke-width="1.5"></path><path d="M1094.55 -87.88L1288.9 -71.45" stroke="rgba(206, 233, 255, 1)" stroke-width="1.5"></path><path d="M1118.99 76.22L1118.99 76.22" stroke="rgba(206, 233, 255, 1)" stroke-width="1.5"></path><path d="M1118.99 76.22L1151.53 216.06" stroke="rgba(206, 233, 255, 1)" stroke-width="1.5"></path><path d="M1118.99 76.22L1281.6 61.05" stroke="rgba(206, 233, 255, 1)" stroke-width="1.5"></path><path d="M1151.53 216.06L1151.53 216.06" stroke="rgba(206, 233, 255, 1)" stroke-width="1.5"></path><path d="M1151.53 216.06L1260.66 252.35" stroke="rgba(206, 233, 255, 1)" stroke-width="1.5"></path><path d="M1151.53 216.06L1111.41 394.5" stroke="rgba(206, 233, 255, 1)" stroke-width="1.5"></path><path d="M1151.53 216.06L1295.03 356.25" stroke="rgba(206, 233, 255, 1)" stroke-width="1.5"></path><path d="M1151.53 216.06L1281.6 61.05" stroke="rgba(206, 233, 255, 1)" stroke-width="1.5"></path><path d="M1111.41 394.5L1111.41 394.5" stroke="rgba(206, 233, 255, 1)" stroke-width="1.5"></path><path d="M1111.41 394.5L1109.64 516.23" stroke="rgba(206, 233, 255, 1)" stroke-width="1.5"></path><path d="M1109.64 516.23L1109.64 516.23" stroke="rgba(206, 233, 255, 1)" stroke-width="1.5"></path><path d="M1109.64 516.23L957.33 516.53" stroke="rgba(206, 233, 255, 1)" stroke-width="1.5"></path><path d="M1109.64 516.23L1263.58 511.97" stroke="rgba(206, 233, 255, 1)" stroke-width="1.5"></path><path d="M1109.64 516.23L1116.79 682.94" stroke="rgba(206, 233, 255, 1)" stroke-width="1.5"></path><path d="M1116.79 682.94L1116.79 682.94" stroke="rgba(206, 233, 255, 1)" stroke-width="1.5"></path><path d="M1116.79 682.94L1259.75 705.92" stroke="rgba(206, 233, 255, 1)" stroke-width="1.5"></path><path d="M1288.9 -71.45L1288.9 -71.45" stroke="rgba(206, 233, 255, 1)" stroke-width="1.5"></path><path d="M1288.9 -71.45L1400.96 -88.94" stroke="rgba(206, 233, 255, 1)" stroke-width="1.5"></path><path d="M1288.9 -71.45L1281.6 61.05" stroke="rgba(206, 233, 255, 1)" stroke-width="1.5"></path><path d="M1288.9 -71.45L1416.93 72.27" stroke="rgba(206, 233, 255, 1)" stroke-width="1.5"></path><path d="M1281.6 61.05L1281.6 61.05" stroke="rgba(206, 233, 255, 1)" stroke-width="1.5"></path><path d="M1281.6 61.05L1416.93 72.27" stroke="rgba(206, 233, 255, 1)" stroke-width="1.5"></path><path d="M1260.66 252.35L1260.66 252.35" stroke="rgba(206, 233, 255, 1)" stroke-width="1.5"></path><path d="M1260.66 252.35L1295.03 356.25" stroke="rgba(206, 233, 255, 1)" stroke-width="1.5"></path><path d="M1295.03 356.25L1295.03 356.25" stroke="rgba(206, 233, 255, 1)" stroke-width="1.5"></path><path d="M1295.03 356.25L1395.39 239" stroke="rgba(206, 233, 255, 1)" stroke-width="1.5"></path><path d="M1295.03 356.25L1263.58 511.97" stroke="rgba(206, 233, 255, 1)" stroke-width="1.5"></path><path d="M1295.03 356.25L1111.41 394.5" stroke="rgba(206, 233, 255, 1)" stroke-width="1.5"></path><path d="M1263.58 511.97L1263.58 511.97" stroke="rgba(206, 233, 255, 1)" stroke-width="1.5"></path><path d="M1263.58 511.97L1453.2 502.48" stroke="rgba(206, 233, 255, 1)" stroke-width="1.5"></path><path d="M1263.58 511.97L1111.41 394.5" stroke="rgba(206, 233, 255, 1)" stroke-width="1.5"></path><path d="M1263.58 511.97L1259.75 705.92" stroke="rgba(206, 233, 255, 1)" stroke-width="1.5"></path><path d="M1263.58 511.97L1116.79 682.94" stroke="rgba(206, 233, 255, 1)" stroke-width="1.5"></path><path d="M1259.75 705.92L1259.75 705.92" stroke="rgba(206, 233, 255, 1)" stroke-width="1.5"></path><path d="M1400.96 -88.94L1400.96 -88.94" stroke="rgba(206, 233, 255, 1)" stroke-width="1.5"></path><path d="M1400.96 -88.94L1416.93 72.27" stroke="rgba(206, 233, 255, 1)" stroke-width="1.5"></path><path d="M1400.96 -88.94L1557.06 -40.81" stroke="rgba(206, 233, 255, 1)" stroke-width="1.5"></path><path d="M1400.96 -88.94L1281.6 61.05" stroke="rgba(206, 233, 255, 1)" stroke-width="1.5"></path><path d="M1400.96 -88.94L1557.45 69.97" stroke="rgba(206, 233, 255, 1)" stroke-width="1.5"></path><path d="M1400.96 -88.94L1094.55 -87.88" stroke="rgba(206, 233, 255, 1)" stroke-width="1.5"></path><path d="M1416.93 72.27L1416.93 72.27" stroke="rgba(206, 233, 255, 1)" stroke-width="1.5"></path><path d="M1416.93 72.27L1557.45 69.97" stroke="rgba(206, 233, 255, 1)" stroke-width="1.5"></path><path d="M1395.39 239L1395.39 239" stroke="rgba(206, 233, 255, 1)" stroke-width="1.5"></path><path d="M1395.39 239L1260.66 252.35" stroke="rgba(206, 233, 255, 1)" stroke-width="1.5"></path><path d="M1395.39 239L1416.93 72.27" stroke="rgba(206, 233, 255, 1)" stroke-width="1.5"></path><path d="M1395.39 239L1281.6 61.05" stroke="rgba(206, 233, 255, 1)" stroke-width="1.5"></path><path d="M1395.39 239L1607.42 205.05" stroke="rgba(206, 233, 255, 1)" stroke-width="1.5"></path><path d="M1395.39 239L1547.96 410.6" stroke="rgba(206, 233, 255, 1)" stroke-width="1.5"></path><path d="M1453.2 502.48L1453.2 502.48" stroke="rgba(206, 233, 255, 1)" stroke-width="1.5"></path><path d="M1453.2 502.48L1556.59 562.03" stroke="rgba(206, 233, 255, 1)" stroke-width="1.5"></path><path d="M1453.2 502.48L1547.96 410.6" stroke="rgba(206, 233, 255, 1)" stroke-width="1.5"></path><path d="M1453.2 502.48L1460.09 645.27" stroke="rgba(206, 233, 255, 1)" stroke-width="1.5"></path><path d="M1453.2 502.48L1295.03 356.25" stroke="rgba(206, 233, 255, 1)" stroke-width="1.5"></path><path d="M1460.09 645.27L1460.09 645.27" stroke="rgba(206, 233, 255, 1)" stroke-width="1.5"></path><path d="M1460.09 645.27L1556.59 562.03" stroke="rgba(206, 233, 255, 1)" stroke-width="1.5"></path><path d="M1557.06 -40.81L1557.06 -40.81" stroke="rgba(206, 233, 255, 1)" stroke-width="1.5"></path><path d="M1557.06 -40.81L1557.45 69.97" stroke="rgba(206, 233, 255, 1)" stroke-width="1.5"></path><path d="M1557.06 -40.81L1416.93 72.27" stroke="rgba(206, 233, 255, 1)" stroke-width="1.5"></path><path d="M1557.06 -40.81L1607.42 205.05" stroke="rgba(206, 233, 255, 1)" stroke-width="1.5"></path><path d="M1557.06 -40.81L1288.9 -71.45" stroke="rgba(206, 233, 255, 1)" stroke-width="1.5"></path><path d="M1557.06 -40.81L1281.6 61.05" stroke="rgba(206, 233, 255, 1)" stroke-width="1.5"></path><path d="M1557.45 69.97L1557.45 69.97" stroke="rgba(206, 233, 255, 1)" stroke-width="1.5"></path><path d="M1557.45 69.97L1607.42 205.05" stroke="rgba(206, 233, 255, 1)" stroke-width="1.5"></path><path d="M1557.45 69.97L1395.39 239" stroke="rgba(206, 233, 255, 1)" stroke-width="1.5"></path><path d="M1607.42 205.05L1607.42 205.05" stroke="rgba(206, 233, 255, 1)" stroke-width="1.5"></path><path d="M1607.42 205.05L1547.96 410.6" stroke="rgba(206, 233, 255, 1)" stroke-width="1.5"></path><path d="M1547.96 410.6L1547.96 410.6" stroke="rgba(206, 233, 255, 1)" stroke-width="1.5"></path><path d="M1547.96 410.6L1556.59 562.03" stroke="rgba(206, 233, 255, 1)" stroke-width="1.5"></path><path d="M1556.59 562.03L1556.59 562.03" stroke="rgba(206, 233, 255, 1)" stroke-width="1.5"></path><path d="M1556.59 562.03L1612.24 687.87" stroke="rgba(206, 233, 255, 1)" stroke-width="1.5"></path><path d="M1612.24 687.87L1612.24 687.87" stroke="rgba(206, 233, 255, 1)" stroke-width="1.5"></path><path d="M1612.24 687.87L1460.09 645.27" stroke="rgba(206, 233, 255, 1)" stroke-width="1.5"></path><path d="M1612.24 687.87L1453.2 502.48" stroke="rgba(206, 233, 255, 1)" stroke-width="1.5"></path><path d="M1612.24 687.87L1547.96 410.6" stroke="rgba(206, 233, 255, 1)" stroke-width="1.5"></path><circle r="5" cx="-108.69" cy="526.03" fill="rgba(206, 233, 255, 1)"></circle><circle r="5" cx="-99.22" cy="661.81" fill="rgba(206, 233, 255, 1)"></circle><circle r="5" cx="101.48" cy="687.47" fill="rgba(206, 233, 255, 1)"></circle><circle r="5" cx="262.07" cy="395.29" fill="rgba(206, 233, 255, 1)"></circle><circle r="5" cx="255.04" cy="704.27" fill="rgba(206, 233, 255, 1)"></circle><circle r="5" cx="364.61" cy="338.45" fill="rgba(206, 233, 255, 1)"></circle><circle r="5" cx="404.65" cy="494.73" fill="rgba(206, 233, 255, 1)"></circle><circle r="5" cx="385.34" cy="653.3" fill="rgba(206, 233, 255, 1)"></circle><circle r="5" cx="514.49" cy="359.88" fill="rgba(206, 233, 255, 1)"></circle><circle r="5" cx="547.84" cy="557.28" fill="rgba(206, 233, 255, 1)"></circle><circle r="5" cx="540.37" cy="702.6" fill="rgba(206, 233, 255, 1)"></circle><circle r="5" cx="705.36" cy="229.99" fill="rgba(206, 233, 255, 1)"></circle><circle r="5" cx="649.72" cy="343.84" fill="rgba(206, 233, 255, 1)"></circle><circle r="5" cx="678.26" cy="495.26" fill="rgba(206, 233, 255, 1)"></circle><circle r="5" cx="793.39" cy="211.01" fill="rgba(206, 233, 255, 1)"></circle><circle r="5" cx="812.32" cy="388.02" fill="rgba(206, 233, 255, 1)"></circle><circle r="5" cx="850.16" cy="555.59" fill="rgba(206, 233, 255, 1)"></circle><circle r="5" cx="965.51" cy="-95.37" fill="rgba(206, 233, 255, 1)"></circle><circle r="5" cx="1007.98" cy="69.69" fill="rgba(206, 233, 255, 1)"></circle><circle r="5" cx="951.45" cy="207.67" fill="rgba(206, 233, 255, 1)"></circle><circle r="5" cx="1004.2" cy="397.62" fill="rgba(206, 233, 255, 1)"></circle><circle r="5" cx="957.33" cy="516.53" fill="rgba(206, 233, 255, 1)"></circle><circle r="5" cx="972.28" cy="641.98" fill="rgba(206, 233, 255, 1)"></circle><circle r="5" cx="1094.55" cy="-87.88" fill="rgba(206, 233, 255, 1)"></circle><circle r="5" cx="1118.99" cy="76.22" fill="rgba(206, 233, 255, 1)"></circle><circle r="5" cx="1151.53" cy="216.06" fill="rgba(206, 233, 255, 1)"></circle><circle r="5" cx="1111.41" cy="394.5" fill="rgba(206, 233, 255, 1)"></circle><circle r="5" cx="1109.64" cy="516.23" fill="rgba(206, 233, 255, 1)"></circle><circle r="5" cx="1116.79" cy="682.94" fill="rgba(206, 233, 255, 1)"></circle><circle r="5" cx="1288.9" cy="-71.45" fill="rgba(206, 233, 255, 1)"></circle><circle r="5" cx="1281.6" cy="61.05" fill="rgba(206, 233, 255, 1)"></circle><circle r="5" cx="1260.66" cy="252.35" fill="rgba(206, 233, 255, 1)"></circle><circle r="5" cx="1295.03" cy="356.25" fill="rgba(206, 233, 255, 1)"></circle><circle r="5" cx="1263.58" cy="511.97" fill="rgba(206, 233, 255, 1)"></circle><circle r="5" cx="1259.75" cy="705.92" fill="rgba(206, 233, 255, 1)"></circle><circle r="5" cx="1400.96" cy="-88.94" fill="rgba(206, 233, 255, 1)"></circle><circle r="5" cx="1416.93" cy="72.27" fill="rgba(206, 233, 255, 1)"></circle><circle r="5" cx="1395.39" cy="239" fill="rgba(206, 233, 255, 1)"></circle><circle r="5" cx="1453.2" cy="502.48" fill="rgba(206, 233, 255, 1)"></circle><circle r="5" cx="1460.09" cy="645.27" fill="rgba(206, 233, 255, 1)"></circle><circle r="5" cx="1557.06" cy="-40.81" fill="rgba(206, 233, 255, 1)"></circle><circle r="5" cx="1557.45" cy="69.97" fill="rgba(206, 233, 255, 1)"></circle><circle r="5" cx="1607.42" cy="205.05" fill="rgba(206, 233, 255, 1)"></circle><circle r="5" cx="1547.96" cy="410.6" fill="rgba(206, 233, 255, 1)"></circle><circle r="5" cx="1556.59" cy="562.03" fill="rgba(206, 233, 255, 1)"></circle><circle r="5" cx="1612.24" cy="687.87" fill="rgba(206, 233, 255, 1)"></circle><path d="M-90.79 640.73L-90.79 640.73" stroke="hsl(198.10000000000002, 100%, 94.6%)" stroke-width="1.5"></path><path d="M-90.79 640.73L50.03 694.86" stroke="hsl(198.10000000000002, 100%, 94.6%)" stroke-width="1.5"></path><path d="M-90.79 640.73L-106.4 489.83" stroke="hsl(198.10000000000002, 100%, 94.6%)" stroke-width="1.5"></path><path d="M-90.79 640.73L92.85 553.41" stroke="hsl(198.10000000000002, 100%, 94.6%)" stroke-width="1.5"></path><path d="M-90.79 640.73L199.92 703.65" stroke="hsl(198.10000000000002, 100%, 94.6%)" stroke-width="1.5"></path><path d="M661.87 517.88L661.87 517.88" stroke="hsl(198.10000000000002, 100%, 94.6%)" stroke-width="1.5"></path><path d="M661.87 517.88L554.82 539.45" stroke="hsl(198.10000000000002, 100%, 94.6%)" stroke-width="1.5"></path><path d="M661.87 517.88L679.6 688.02" stroke="hsl(198.10000000000002, 100%, 94.6%)" stroke-width="1.5"></path><path d="M661.87 517.88L856.39 532.45" stroke="hsl(198.10000000000002, 100%, 94.6%)" stroke-width="1.5"></path><path d="M661.87 517.88L825.77 393.5" stroke="hsl(198.10000000000002, 100%, 94.6%)" stroke-width="1.5"></path><path d="M661.87 517.88L514.51 692.15" stroke="hsl(198.10000000000002, 100%, 94.6%)" stroke-width="1.5"></path><path d="M851.94 659.18L851.94 659.18" stroke="hsl(198.10000000000002, 100%, 94.6%)" stroke-width="1.5"></path><path d="M851.94 659.18L856.39 532.45" stroke="hsl(198.10000000000002, 100%, 94.6%)" stroke-width="1.5"></path><path d="M851.94 659.18L679.6 688.02" stroke="hsl(198.10000000000002, 100%, 94.6%)" stroke-width="1.5"></path><path d="M1250.89 508.94L1250.89 508.94" stroke="hsl(198.10000000000002, 100%, 94.6%)" stroke-width="1.5"></path><path d="M1250.89 508.94L1154.67 556.98" stroke="hsl(198.10000000000002, 100%, 94.6%)" stroke-width="1.5"></path><path d="M1250.89 508.94L1287.08 639.78" stroke="hsl(198.10000000000002, 100%, 94.6%)" stroke-width="1.5"></path><path d="M1428.41 706.94L1428.41 706.94" stroke="hsl(198.10000000000002, 100%, 94.6%)" stroke-width="1.5"></path><path d="M1428.41 706.94L1568.41 639.91" stroke="hsl(198.10000000000002, 100%, 94.6%)" stroke-width="1.5"></path><path d="M1428.41 706.94L1287.08 639.78" stroke="hsl(198.10000000000002, 100%, 94.6%)" stroke-width="1.5"></path><path d="M1428.41 706.94L1406.73 503.73" stroke="hsl(198.10000000000002, 100%, 94.6%)" stroke-width="1.5"></path><path d="M-106.4 489.83L-106.4 489.83" stroke="hsl(198.10000000000002, 100%, 94.6%)" stroke-width="1.5"></path><path d="M-106.4 489.83L92.85 553.41" stroke="hsl(198.10000000000002, 100%, 94.6%)" stroke-width="1.5"></path><path d="M-106.4 489.83L50.03 694.86" stroke="hsl(198.10000000000002, 100%, 94.6%)" stroke-width="1.5"></path><path d="M-106.4 489.83L228.37 557.65" stroke="hsl(198.10000000000002, 100%, 94.6%)" stroke-width="1.5"></path><path d="M92.85 553.41L92.85 553.41" stroke="hsl(198.10000000000002, 100%, 94.6%)" stroke-width="1.5"></path><path d="M92.85 553.41L228.37 557.65" stroke="hsl(198.10000000000002, 100%, 94.6%)" stroke-width="1.5"></path><path d="M92.85 553.41L50.03 694.86" stroke="hsl(198.10000000000002, 100%, 94.6%)" stroke-width="1.5"></path><path d="M92.85 553.41L199.92 703.65" stroke="hsl(198.10000000000002, 100%, 94.6%)" stroke-width="1.5"></path><path d="M50.03 694.86L50.03 694.86" stroke="hsl(198.10000000000002, 100%, 94.6%)" stroke-width="1.5"></path><path d="M50.03 694.86L199.92 703.65" stroke="hsl(198.10000000000002, 100%, 94.6%)" stroke-width="1.5"></path><path d="M50.03 694.86L228.37 557.65" stroke="hsl(198.10000000000002, 100%, 94.6%)" stroke-width="1.5"></path><path d="M228.37 557.65L228.37 557.65" stroke="hsl(198.10000000000002, 100%, 94.6%)" stroke-width="1.5"></path><path d="M228.37 557.65L199.92 703.65" stroke="hsl(198.10000000000002, 100%, 94.6%)" stroke-width="1.5"></path><path d="M228.37 557.65L390.55 499" stroke="hsl(198.10000000000002, 100%, 94.6%)" stroke-width="1.5"></path><path d="M228.37 557.65L372.74 712.16" stroke="hsl(198.10000000000002, 100%, 94.6%)" stroke-width="1.5"></path><path d="M199.92 703.65L199.92 703.65" stroke="hsl(198.10000000000002, 100%, 94.6%)" stroke-width="1.5"></path><path d="M199.92 703.65L372.74 712.16" stroke="hsl(198.10000000000002, 100%, 94.6%)" stroke-width="1.5"></path><path d="M199.92 703.65L390.55 499" stroke="hsl(198.10000000000002, 100%, 94.6%)" stroke-width="1.5"></path><path d="M390.55 499L390.55 499" stroke="hsl(198.10000000000002, 100%, 94.6%)" stroke-width="1.5"></path><path d="M390.55 499L554.82 539.45" stroke="hsl(198.10000000000002, 100%, 94.6%)" stroke-width="1.5"></path><path d="M390.55 499L372.74 712.16" stroke="hsl(198.10000000000002, 100%, 94.6%)" stroke-width="1.5"></path><path d="M390.55 499L514.51 692.15" stroke="hsl(198.10000000000002, 100%, 94.6%)" stroke-width="1.5"></path><path d="M372.74 712.16L372.74 712.16" stroke="hsl(198.10000000000002, 100%, 94.6%)" stroke-width="1.5"></path><path d="M372.74 712.16L514.51 692.15" stroke="hsl(198.10000000000002, 100%, 94.6%)" stroke-width="1.5"></path><path d="M554.82 539.45L554.82 539.45" stroke="hsl(198.10000000000002, 100%, 94.6%)" stroke-width="1.5"></path><path d="M554.82 539.45L514.51 692.15" stroke="hsl(198.10000000000002, 100%, 94.6%)" stroke-width="1.5"></path><path d="M514.51 692.15L514.51 692.15" stroke="hsl(198.10000000000002, 100%, 94.6%)" stroke-width="1.5"></path><path d="M514.51 692.15L679.6 688.02" stroke="hsl(198.10000000000002, 100%, 94.6%)" stroke-width="1.5"></path><path d="M514.51 692.15L199.92 703.65" stroke="hsl(198.10000000000002, 100%, 94.6%)" stroke-width="1.5"></path><path d="M679.6 688.02L679.6 688.02" stroke="hsl(198.10000000000002, 100%, 94.6%)" stroke-width="1.5"></path><path d="M825.77 393.5L825.77 393.5" stroke="hsl(198.10000000000002, 100%, 94.6%)" stroke-width="1.5"></path><path d="M825.77 393.5L953.97 368.22" stroke="hsl(198.10000000000002, 100%, 94.6%)" stroke-width="1.5"></path><path d="M825.77 393.5L856.39 532.45" stroke="hsl(198.10000000000002, 100%, 94.6%)" stroke-width="1.5"></path><path d="M856.39 532.45L856.39 532.45" stroke="hsl(198.10000000000002, 100%, 94.6%)" stroke-width="1.5"></path><path d="M856.39 532.45L953.97 368.22" stroke="hsl(198.10000000000002, 100%, 94.6%)" stroke-width="1.5"></path><path d="M953.97 368.22L953.97 368.22" stroke="hsl(198.10000000000002, 100%, 94.6%)" stroke-width="1.5"></path><path d="M953.97 368.22L1139.43 380.69" stroke="hsl(198.10000000000002, 100%, 94.6%)" stroke-width="1.5"></path><path d="M1122.42 256.52L1122.42 256.52" stroke="hsl(198.10000000000002, 100%, 94.6%)" stroke-width="1.5"></path><path d="M1122.42 256.52L1139.43 380.69" stroke="hsl(198.10000000000002, 100%, 94.6%)" stroke-width="1.5"></path><path d="M1122.42 256.52L1307.01 207.61" stroke="hsl(198.10000000000002, 100%, 94.6%)" stroke-width="1.5"></path><path d="M1122.42 256.52L953.97 368.22" stroke="hsl(198.10000000000002, 100%, 94.6%)" stroke-width="1.5"></path><path d="M1139.43 380.69L1139.43 380.69" stroke="hsl(198.10000000000002, 100%, 94.6%)" stroke-width="1.5"></path><path d="M1139.43 380.69L1301.37 369.51" stroke="hsl(198.10000000000002, 100%, 94.6%)" stroke-width="1.5"></path><path d="M1139.43 380.69L1250.89 508.94" stroke="hsl(198.10000000000002, 100%, 94.6%)" stroke-width="1.5"></path><path d="M1139.43 380.69L1154.67 556.98" stroke="hsl(198.10000000000002, 100%, 94.6%)" stroke-width="1.5"></path><path d="M1154.67 556.98L1154.67 556.98" stroke="hsl(198.10000000000002, 100%, 94.6%)" stroke-width="1.5"></path><path d="M1154.67 556.98L1145.3 650.4" stroke="hsl(198.10000000000002, 100%, 94.6%)" stroke-width="1.5"></path><path d="M1154.67 556.98L1287.08 639.78" stroke="hsl(198.10000000000002, 100%, 94.6%)" stroke-width="1.5"></path><path d="M1154.67 556.98L1301.37 369.51" stroke="hsl(198.10000000000002, 100%, 94.6%)" stroke-width="1.5"></path><path d="M1145.3 650.4L1145.3 650.4" stroke="hsl(198.10000000000002, 100%, 94.6%)" stroke-width="1.5"></path><path d="M1145.3 650.4L1287.08 639.78" stroke="hsl(198.10000000000002, 100%, 94.6%)" stroke-width="1.5"></path><path d="M1145.3 650.4L1250.89 508.94" stroke="hsl(198.10000000000002, 100%, 94.6%)" stroke-width="1.5"></path><path d="M1305.2 54.33L1305.2 54.33" stroke="hsl(198.10000000000002, 100%, 94.6%)" stroke-width="1.5"></path><path d="M1305.2 54.33L1413.81 45.9" stroke="hsl(198.10000000000002, 100%, 94.6%)" stroke-width="1.5"></path><path d="M1305.2 54.33L1393.63 -53.08" stroke="hsl(198.10000000000002, 100%, 94.6%)" stroke-width="1.5"></path><path d="M1305.2 54.33L1307.01 207.61" stroke="hsl(198.10000000000002, 100%, 94.6%)" stroke-width="1.5"></path><path d="M1305.2 54.33L1442.66 221.11" stroke="hsl(198.10000000000002, 100%, 94.6%)" stroke-width="1.5"></path><path d="M1305.2 54.33L1569.38 110.66" stroke="hsl(198.10000000000002, 100%, 94.6%)" stroke-width="1.5"></path><path d="M1307.01 207.61L1307.01 207.61" stroke="hsl(198.10000000000002, 100%, 94.6%)" stroke-width="1.5"></path><path d="M1307.01 207.61L1442.66 221.11" stroke="hsl(198.10000000000002, 100%, 94.6%)" stroke-width="1.5"></path><path d="M1301.37 369.51L1301.37 369.51" stroke="hsl(198.10000000000002, 100%, 94.6%)" stroke-width="1.5"></path><path d="M1301.37 369.51L1250.89 508.94" stroke="hsl(198.10000000000002, 100%, 94.6%)" stroke-width="1.5"></path><path d="M1301.37 369.51L1307.01 207.61" stroke="hsl(198.10000000000002, 100%, 94.6%)" stroke-width="1.5"></path><path d="M1287.08 639.78L1287.08 639.78" stroke="hsl(198.10000000000002, 100%, 94.6%)" stroke-width="1.5"></path><path d="M1287.08 639.78L1406.73 503.73" stroke="hsl(198.10000000000002, 100%, 94.6%)" stroke-width="1.5"></path><path d="M1393.63 -53.08L1393.63 -53.08" stroke="hsl(198.10000000000002, 100%, 94.6%)" stroke-width="1.5"></path><path d="M1393.63 -53.08L1413.81 45.9" stroke="hsl(198.10000000000002, 100%, 94.6%)" stroke-width="1.5"></path><path d="M1413.81 45.9L1413.81 45.9" stroke="hsl(198.10000000000002, 100%, 94.6%)" stroke-width="1.5"></path><path d="M1413.81 45.9L1569.38 110.66" stroke="hsl(198.10000000000002, 100%, 94.6%)" stroke-width="1.5"></path><path d="M1413.81 45.9L1442.66 221.11" stroke="hsl(198.10000000000002, 100%, 94.6%)" stroke-width="1.5"></path><path d="M1413.81 45.9L1307.01 207.61" stroke="hsl(198.10000000000002, 100%, 94.6%)" stroke-width="1.5"></path><path d="M1413.81 45.9L1558.65 215.32" stroke="hsl(198.10000000000002, 100%, 94.6%)" stroke-width="1.5"></path><path d="M1442.66 221.11L1442.66 221.11" stroke="hsl(198.10000000000002, 100%, 94.6%)" stroke-width="1.5"></path><path d="M1442.66 221.11L1558.65 215.32" stroke="hsl(198.10000000000002, 100%, 94.6%)" stroke-width="1.5"></path><path d="M1442.66 221.11L1569.38 110.66" stroke="hsl(198.10000000000002, 100%, 94.6%)" stroke-width="1.5"></path><path d="M1442.66 221.11L1301.37 369.51" stroke="hsl(198.10000000000002, 100%, 94.6%)" stroke-width="1.5"></path><path d="M1406.73 503.73L1406.73 503.73" stroke="hsl(198.10000000000002, 100%, 94.6%)" stroke-width="1.5"></path><path d="M1406.73 503.73L1250.89 508.94" stroke="hsl(198.10000000000002, 100%, 94.6%)" stroke-width="1.5"></path><path d="M1406.73 503.73L1301.37 369.51" stroke="hsl(198.10000000000002, 100%, 94.6%)" stroke-width="1.5"></path><path d="M1406.73 503.73L1581.37 504.97" stroke="hsl(198.10000000000002, 100%, 94.6%)" stroke-width="1.5"></path><path d="M1406.73 503.73L1568.41 639.91" stroke="hsl(198.10000000000002, 100%, 94.6%)" stroke-width="1.5"></path><path d="M1569.38 110.66L1569.38 110.66" stroke="hsl(198.10000000000002, 100%, 94.6%)" stroke-width="1.5"></path><path d="M1569.38 110.66L1558.65 215.32" stroke="hsl(198.10000000000002, 100%, 94.6%)" stroke-width="1.5"></path><path d="M1558.65 215.32L1558.65 215.32" stroke="hsl(198.10000000000002, 100%, 94.6%)" stroke-width="1.5"></path><path d="M1581.37 504.97L1581.37 504.97" stroke="hsl(198.10000000000002, 100%, 94.6%)" stroke-width="1.5"></path><path d="M1581.37 504.97L1568.41 639.91" stroke="hsl(198.10000000000002, 100%, 94.6%)" stroke-width="1.5"></path><path d="M1581.37 504.97L1428.41 706.94" stroke="hsl(198.10000000000002, 100%, 94.6%)" stroke-width="1.5"></path><path d="M1581.37 504.97L1558.65 215.32" stroke="hsl(198.10000000000002, 100%, 94.6%)" stroke-width="1.5"></path><path d="M1581.37 504.97L1301.37 369.51" stroke="hsl(198.10000000000002, 100%, 94.6%)" stroke-width="1.5"></path><path d="M1581.37 504.97L1442.66 221.11" stroke="hsl(198.10000000000002, 100%, 94.6%)" stroke-width="1.5"></path><path d="M1568.41 639.91L1568.41 639.91" stroke="hsl(198.10000000000002, 100%, 94.6%)" stroke-width="1.5"></path><circle r="25" cx="-90.79" cy="640.73" fill="url(#SvgjsRadialGradient1049)"></circle><circle r="25" cx="661.87" cy="517.88" fill="url(#SvgjsRadialGradient1049)"></circle><circle r="25" cx="851.94" cy="659.18" fill="url(#SvgjsRadialGradient1049)"></circle><circle r="25" cx="1250.89" cy="508.94" fill="url(#SvgjsRadialGradient1049)"></circle><circle r="25" cx="1428.41" cy="706.94" fill="url(#SvgjsRadialGradient1049)"></circle><circle r="5" cx="-106.4" cy="489.83" fill="#baeaff"></circle><circle r="5" cx="92.85" cy="553.41" fill="#baeaff"></circle><circle r="5" cx="50.03" cy="694.86" fill="#baeaff"></circle><circle r="5" cx="228.37" cy="557.65" fill="#baeaff"></circle><circle r="5" cx="199.92" cy="703.65" fill="#baeaff"></circle><circle r="5" cx="390.55" cy="499" fill="#baeaff"></circle><circle r="5" cx="372.74" cy="712.16" fill="#baeaff"></circle><circle r="5" cx="554.82" cy="539.45" fill="#baeaff"></circle><circle r="5" cx="514.51" cy="692.15" fill="#baeaff"></circle><circle r="5" cx="679.6" cy="688.02" fill="#baeaff"></circle><circle r="5" cx="825.77" cy="393.5" fill="#baeaff"></circle><circle r="5" cx="856.39" cy="532.45" fill="#baeaff"></circle><circle r="5" cx="953.97" cy="368.22" fill="#baeaff"></circle><circle r="5" cx="1122.42" cy="256.52" fill="#baeaff"></circle><circle r="5" cx="1139.43" cy="380.69" fill="#baeaff"></circle><circle r="5" cx="1154.67" cy="556.98" fill="#baeaff"></circle><circle r="5" cx="1145.3" cy="650.4" fill="#baeaff"></circle><circle r="5" cx="1305.2" cy="54.33" fill="#baeaff"></circle><circle r="5" cx="1307.01" cy="207.61" fill="#baeaff"></circle><circle r="5" cx="1301.37" cy="369.51" fill="#baeaff"></circle><circle r="5" cx="1287.08" cy="639.78" fill="#baeaff"></circle><circle r="5" cx="1393.63" cy="-53.08" fill="#baeaff"></circle><circle r="5" cx="1413.81" cy="45.9" fill="#baeaff"></circle><circle r="5" cx="1442.66" cy="221.11" fill="#baeaff"></circle><circle r="5" cx="1406.73" cy="503.73" fill="#baeaff"></circle><circle r="5" cx="1569.38" cy="110.66" fill="#baeaff"></circle><circle r="5" cx="1558.65" cy="215.32" fill="#baeaff"></circle><circle r="5" cx="1581.37" cy="504.97" fill="#baeaff"></circle><circle r="5" cx="1568.41" cy="639.91" fill="#baeaff"></circle></g><defs><mask id="SvgjsMask1048"><rect width="1448" height="600" fill="#ffffff"></rect></mask><radialGradient id="SvgjsRadialGradient1049"><stop stop-color="#ffffff" offset="0.1"></stop><stop stop-color="rgba(116, 213, 255, 1)" offset="0.2"></stop><stop stop-color="rgba(116, 213, 255, 0)" offset="1"></stop></radialGradient></defs></svg>