<svg xmlns="http://www.w3.org/2000/svg" version="1.1" xmlns:xlink="http://www.w3.org/1999/xlink" xmlns:svgjs="http://svgjs.com/svgjs" width="1440" height="560" preserveAspectRatio="none" viewBox="0 0 1440 560"><g mask="url(&quot;#SvgjsMask1047&quot;)" fill="none"><rect width="1440" height="560" x="0" y="0" fill="rgba(5, 205, 90, 1)"></rect><path d="M0,491.605C97.481,488.239,201.555,493.927,281.696,438.328C360.93,383.358,389.571,283.89,427.316,195.149C464.097,108.675,507.118,21.895,498.627,-71.692C489.911,-167.748,440.563,-254.192,379.753,-329.058C317.502,-405.699,245.661,-490.027,147.854,-503.545C51.798,-516.821,-24.284,-426.828,-116.77,-397.683C-206.689,-369.347,-312.579,-393.334,-386.712,-335.088C-465.547,-273.148,-512.874,-175.026,-526.564,-75.708C-540.217,23.338,-501.842,119.287,-461.985,210.982C-421.482,304.164,-381.32,405.474,-294.481,458.222C-208.303,510.569,-100.771,495.084,0,491.605" fill="#04a247"></path><path d="M1440 884.385C1500.3220000000001 879.844 1552.34 846.694 1603.37 814.208 1654.606 781.591 1710.9270000000001 750.496 1736.704 695.5 1762.574 640.306 1739.34 577.295 1742.932 516.445 1747.652 436.492 1813.375 342.445 1761.13 281.739 1708.9479999999999 221.10700000000003 1604.595 282.839 1526.597 265.077 1455.804 248.95600000000002 1401.968 180.32 1329.43 183.43200000000002 1250.609 186.81400000000002 1161.67 215.675 1119.786 282.533 1077.921 349.35900000000004 1131.341 435.98 1122.151 514.3 1113.317 589.584 1037.7069999999999 660.422 1067.251 730.229 1096.67 799.742 1190.266 811.21 1260.018 840.057 1318.295 864.158 1377.114 889.119 1440 884.385" fill="#06f86d"></path></g><defs><mask id="SvgjsMask1047"><rect width="1440" height="560" fill="#ffffff"></rect></mask></defs></svg>