<svg xmlns="http://www.w3.org/2000/svg" version="1.1" xmlns:xlink="http://www.w3.org/1999/xlink" xmlns:svgjs="http://svgjs.com/svgjs" width="1920" height="1080" preserveAspectRatio="none" viewBox="0 0 1920 1080"><g mask="url(&quot;#SvgjsMask1047&quot;)" fill="none"><rect width="1920" height="1080" x="0" y="0" fill="rgba(45, 93, 124, 1)"></rect><path d="M0,624.857C123.756,616.463,258.424,631.087,358.319,557.555C456.626,485.192,482.079,353.934,523.865,239.241C562.485,133.237,609.864,26.287,592.487,-85.187C575.204,-196.06,487.937,-276.161,428.671,-371.445C356.711,-487.137,325.955,-638.539,206.993,-704.954C81.552,-774.986,-78.631,-777.207,-214.5,-730.52C-348.018,-684.641,-442.369,-569.201,-523.772,-453.851C-599.211,-346.952,-661.419,-226.124,-662.781,-95.294C-664.065,28.061,-575.472,127.434,-531.022,242.51C-482.997,366.841,-499.142,530.496,-390.979,608.376C-282.933,686.171,-132.834,633.866,0,624.857" fill="#244a63"></path><path d="M1920 1746.4589999999998C2101.833 1764.6599999999999 2273.9030000000002 1966.202 2438.475 1886.763 2597.547 1809.979 2559.0190000000002 1565.98 2629.465 1404.002 2698.203 1245.953 2847.995 1119.018 2847.334 946.669 2846.6459999999997 767.3399999999999 2741.842 605.143 2625.877 468.35400000000004 2509.052 330.55100000000004 2360.879 219.74699999999996 2187.638 168.50900000000001 2014.2 117.21199999999999 1818.456 101.66399999999999 1656.193 181.55700000000002 1501.4270000000001 257.75800000000004 1426.092 429.908 1346.204 582.803 1281.047 707.506 1245.068 841.421 1237.993 981.942 1231.4189999999999 1112.502 1271.806 1234.036 1307.077 1359.913 1349.0439999999999 1509.687 1332.635 1706.268 1464.199 1789.24 1595.944 1872.326 1765.018 1730.946 1920 1746.4589999999998" fill="#367095"></path></g><defs><mask id="SvgjsMask1047"><rect width="1920" height="1080" fill="#ffffff"></rect></mask></defs></svg>